<?xml version="1.0" encoding="utf-8" standalone="no"?>
<!DOCTYPE svg PUBLIC "-//W3C//DTD SVG 1.1//EN"
  "http://www.w3.org/Graphics/SVG/1.1/DTD/svg11.dtd">
<svg height="268.935469pt" version="1.1" viewBox="0 0 801.010583 268.935469" width="801.010583pt" xmlns="http://www.w3.org/2000/svg" xmlns:xlink="http://www.w3.org/1999/xlink">
 <metadata>
  <rdf:RDF xmlns:cc="http://creativecommons.org/ns#" xmlns:dc="http://purl.org/dc/elements/1.1/" xmlns:rdf="http://www.w3.org/1999/02/22-rdf-syntax-ns#">
   <cc:Work>
    <dc:type rdf:resource="http://purl.org/dc/dcmitype/StillImage"/>
    <dc:date>2021-08-17T11:56:31.435249</dc:date>
    <dc:format>image/svg+xml</dc:format>
    <dc:creator>
     <cc:Agent>
      <dc:title>Matplotlib v3.4.2, https://matplotlib.org/</dc:title>
     </cc:Agent>
    </dc:creator>
   </cc:Work>
  </rdf:RDF>
 </metadata>
 <defs>
  <style type="text/css">*{stroke-linecap:butt;stroke-linejoin:round;}</style>
 </defs>
 <g id="figure_1">
  <g id="patch_1">
   <path d="M 0 268.935469 
L 801.010583 268.935469 
L 801.010583 0 
L 0 0 
z
" style="fill:#ffffff;"/>
  </g>
  <g id="axes_1">
   <g id="patch_2">
    <path d="M 367.750271 226.775625 
L 646.750271 226.775625 
L 646.750271 36.515625 
L 367.750271 36.515625 
z
" style="fill:#ffffff;"/>
   </g>
   <g id="matplotlib.axis_1">
    <g id="xtick_1">
     <g id="text_1">
      <!-- 0 -->
      <g style="fill:#262626;" transform="translate(364.691755 244.149219)scale(0.11 -0.11)">
       <defs>
        <path d="M 266 2259 
Q 266 3072 433 3567 
Q 600 4063 929 4331 
Q 1259 4600 1759 4600 
Q 2128 4600 2406 4451 
Q 2684 4303 2865 4023 
Q 3047 3744 3150 3342 
Q 3253 2941 3253 2259 
Q 3253 1453 3087 958 
Q 2922 463 2592 192 
Q 2263 -78 1759 -78 
Q 1097 -78 719 397 
Q 266 969 266 2259 
z
M 844 2259 
Q 844 1131 1108 757 
Q 1372 384 1759 384 
Q 2147 384 2411 759 
Q 2675 1134 2675 2259 
Q 2675 3391 2411 3762 
Q 2147 4134 1753 4134 
Q 1366 4134 1134 3806 
Q 844 3388 844 2259 
z
" id="ArialMT-30" transform="scale(0.015625)"/>
       </defs>
       <use xlink:href="#ArialMT-30"/>
      </g>
     </g>
    </g>
    <g id="xtick_2">
     <g id="text_2">
      <!-- 1 -->
      <g style="fill:#262626;" transform="translate(409.502296 244.149219)scale(0.11 -0.11)">
       <defs>
        <path d="M 2384 0 
L 1822 0 
L 1822 3584 
Q 1619 3391 1289 3197 
Q 959 3003 697 2906 
L 697 3450 
Q 1169 3672 1522 3987 
Q 1875 4303 2022 4600 
L 2384 4600 
L 2384 0 
z
" id="ArialMT-31" transform="scale(0.015625)"/>
       </defs>
       <use xlink:href="#ArialMT-31"/>
      </g>
     </g>
    </g>
    <g id="xtick_3">
     <g id="text_3">
      <!-- 2 -->
      <g style="fill:#262626;" transform="translate(454.312838 244.149219)scale(0.11 -0.11)">
       <defs>
        <path d="M 3222 541 
L 3222 0 
L 194 0 
Q 188 203 259 391 
Q 375 700 629 1000 
Q 884 1300 1366 1694 
Q 2113 2306 2375 2664 
Q 2638 3022 2638 3341 
Q 2638 3675 2398 3904 
Q 2159 4134 1775 4134 
Q 1369 4134 1125 3890 
Q 881 3647 878 3216 
L 300 3275 
Q 359 3922 746 4261 
Q 1134 4600 1788 4600 
Q 2447 4600 2831 4234 
Q 3216 3869 3216 3328 
Q 3216 3053 3103 2787 
Q 2991 2522 2730 2228 
Q 2469 1934 1863 1422 
Q 1356 997 1212 845 
Q 1069 694 975 541 
L 3222 541 
z
" id="ArialMT-32" transform="scale(0.015625)"/>
       </defs>
       <use xlink:href="#ArialMT-32"/>
      </g>
     </g>
    </g>
    <g id="xtick_4">
     <g id="text_4">
      <!-- 3 -->
      <g style="fill:#262626;" transform="translate(499.123379 244.149219)scale(0.11 -0.11)">
       <defs>
        <path d="M 269 1209 
L 831 1284 
Q 928 806 1161 595 
Q 1394 384 1728 384 
Q 2125 384 2398 659 
Q 2672 934 2672 1341 
Q 2672 1728 2419 1979 
Q 2166 2231 1775 2231 
Q 1616 2231 1378 2169 
L 1441 2663 
Q 1497 2656 1531 2656 
Q 1891 2656 2178 2843 
Q 2466 3031 2466 3422 
Q 2466 3731 2256 3934 
Q 2047 4138 1716 4138 
Q 1388 4138 1169 3931 
Q 950 3725 888 3313 
L 325 3413 
Q 428 3978 793 4289 
Q 1159 4600 1703 4600 
Q 2078 4600 2393 4439 
Q 2709 4278 2876 4000 
Q 3044 3722 3044 3409 
Q 3044 3113 2884 2869 
Q 2725 2625 2413 2481 
Q 2819 2388 3044 2092 
Q 3269 1797 3269 1353 
Q 3269 753 2831 336 
Q 2394 -81 1725 -81 
Q 1122 -81 723 278 
Q 325 638 269 1209 
z
" id="ArialMT-33" transform="scale(0.015625)"/>
       </defs>
       <use xlink:href="#ArialMT-33"/>
      </g>
     </g>
    </g>
    <g id="xtick_5">
     <g id="text_5">
      <!-- 4 -->
      <g style="fill:#262626;" transform="translate(543.93392 244.149219)scale(0.11 -0.11)">
       <defs>
        <path d="M 2069 0 
L 2069 1097 
L 81 1097 
L 81 1613 
L 2172 4581 
L 2631 4581 
L 2631 1613 
L 3250 1613 
L 3250 1097 
L 2631 1097 
L 2631 0 
L 2069 0 
z
M 2069 1613 
L 2069 3678 
L 634 1613 
L 2069 1613 
z
" id="ArialMT-34" transform="scale(0.015625)"/>
       </defs>
       <use xlink:href="#ArialMT-34"/>
      </g>
     </g>
    </g>
    <g id="xtick_6">
     <g id="text_6">
      <!-- 5 -->
      <g style="fill:#262626;" transform="translate(588.744462 244.149219)scale(0.11 -0.11)">
       <defs>
        <path d="M 266 1200 
L 856 1250 
Q 922 819 1161 601 
Q 1400 384 1738 384 
Q 2144 384 2425 690 
Q 2706 997 2706 1503 
Q 2706 1984 2436 2262 
Q 2166 2541 1728 2541 
Q 1456 2541 1237 2417 
Q 1019 2294 894 2097 
L 366 2166 
L 809 4519 
L 3088 4519 
L 3088 3981 
L 1259 3981 
L 1013 2750 
Q 1425 3038 1878 3038 
Q 2478 3038 2890 2622 
Q 3303 2206 3303 1553 
Q 3303 931 2941 478 
Q 2500 -78 1738 -78 
Q 1113 -78 717 272 
Q 322 622 266 1200 
z
" id="ArialMT-35" transform="scale(0.015625)"/>
       </defs>
       <use xlink:href="#ArialMT-35"/>
      </g>
     </g>
    </g>
    <g id="xtick_7">
     <g id="text_7">
      <!-- 6 -->
      <g style="fill:#262626;" transform="translate(633.555003 244.149219)scale(0.11 -0.11)">
       <defs>
        <path d="M 3184 3459 
L 2625 3416 
Q 2550 3747 2413 3897 
Q 2184 4138 1850 4138 
Q 1581 4138 1378 3988 
Q 1113 3794 959 3422 
Q 806 3050 800 2363 
Q 1003 2672 1297 2822 
Q 1591 2972 1913 2972 
Q 2475 2972 2870 2558 
Q 3266 2144 3266 1488 
Q 3266 1056 3080 686 
Q 2894 316 2569 119 
Q 2244 -78 1831 -78 
Q 1128 -78 684 439 
Q 241 956 241 2144 
Q 241 3472 731 4075 
Q 1159 4600 1884 4600 
Q 2425 4600 2770 4297 
Q 3116 3994 3184 3459 
z
M 888 1484 
Q 888 1194 1011 928 
Q 1134 663 1356 523 
Q 1578 384 1822 384 
Q 2178 384 2434 671 
Q 2691 959 2691 1453 
Q 2691 1928 2437 2201 
Q 2184 2475 1800 2475 
Q 1419 2475 1153 2201 
Q 888 1928 888 1484 
z
" id="ArialMT-36" transform="scale(0.015625)"/>
       </defs>
       <use xlink:href="#ArialMT-36"/>
      </g>
     </g>
    </g>
    <g id="text_8">
     <!-- -log$_1$$_0$(FDR) -->
     <g style="fill:#262626;" transform="translate(475.090271 259.095469)scale(0.12 -0.12)">
      <defs>
       <path d="M 203 1375 
L 203 1941 
L 1931 1941 
L 1931 1375 
L 203 1375 
z
" id="ArialMT-2d" transform="scale(0.015625)"/>
       <path d="M 409 0 
L 409 4581 
L 972 4581 
L 972 0 
L 409 0 
z
" id="ArialMT-6c" transform="scale(0.015625)"/>
       <path d="M 213 1659 
Q 213 2581 725 3025 
Q 1153 3394 1769 3394 
Q 2453 3394 2887 2945 
Q 3322 2497 3322 1706 
Q 3322 1066 3130 698 
Q 2938 331 2570 128 
Q 2203 -75 1769 -75 
Q 1072 -75 642 372 
Q 213 819 213 1659 
z
M 791 1659 
Q 791 1022 1069 705 
Q 1347 388 1769 388 
Q 2188 388 2466 706 
Q 2744 1025 2744 1678 
Q 2744 2294 2464 2611 
Q 2184 2928 1769 2928 
Q 1347 2928 1069 2612 
Q 791 2297 791 1659 
z
" id="ArialMT-6f" transform="scale(0.015625)"/>
       <path d="M 319 -275 
L 866 -356 
Q 900 -609 1056 -725 
Q 1266 -881 1628 -881 
Q 2019 -881 2231 -725 
Q 2444 -569 2519 -288 
Q 2563 -116 2559 434 
Q 2191 0 1641 0 
Q 956 0 581 494 
Q 206 988 206 1678 
Q 206 2153 378 2554 
Q 550 2956 876 3175 
Q 1203 3394 1644 3394 
Q 2231 3394 2613 2919 
L 2613 3319 
L 3131 3319 
L 3131 450 
Q 3131 -325 2973 -648 
Q 2816 -972 2473 -1159 
Q 2131 -1347 1631 -1347 
Q 1038 -1347 672 -1080 
Q 306 -813 319 -275 
z
M 784 1719 
Q 784 1066 1043 766 
Q 1303 466 1694 466 
Q 2081 466 2343 764 
Q 2606 1063 2606 1700 
Q 2606 2309 2336 2618 
Q 2066 2928 1684 2928 
Q 1309 2928 1046 2623 
Q 784 2319 784 1719 
z
" id="ArialMT-67" transform="scale(0.015625)"/>
       <path d="M 794 531 
L 1825 531 
L 1825 4091 
L 703 3866 
L 703 4441 
L 1819 4666 
L 2450 4666 
L 2450 531 
L 3481 531 
L 3481 0 
L 794 0 
L 794 531 
z
" id="DejaVuSans-31" transform="scale(0.015625)"/>
       <path d="M 2034 4250 
Q 1547 4250 1301 3770 
Q 1056 3291 1056 2328 
Q 1056 1369 1301 889 
Q 1547 409 2034 409 
Q 2525 409 2770 889 
Q 3016 1369 3016 2328 
Q 3016 3291 2770 3770 
Q 2525 4250 2034 4250 
z
M 2034 4750 
Q 2819 4750 3233 4129 
Q 3647 3509 3647 2328 
Q 3647 1150 3233 529 
Q 2819 -91 2034 -91 
Q 1250 -91 836 529 
Q 422 1150 422 2328 
Q 422 3509 836 4129 
Q 1250 4750 2034 4750 
z
" id="DejaVuSans-30" transform="scale(0.015625)"/>
       <path d="M 1497 -1347 
Q 1031 -759 709 28 
Q 388 816 388 1659 
Q 388 2403 628 3084 
Q 909 3875 1497 4659 
L 1900 4659 
Q 1522 4009 1400 3731 
Q 1209 3300 1100 2831 
Q 966 2247 966 1656 
Q 966 153 1900 -1347 
L 1497 -1347 
z
" id="ArialMT-28" transform="scale(0.015625)"/>
       <path d="M 525 0 
L 525 4581 
L 3616 4581 
L 3616 4041 
L 1131 4041 
L 1131 2622 
L 3281 2622 
L 3281 2081 
L 1131 2081 
L 1131 0 
L 525 0 
z
" id="ArialMT-46" transform="scale(0.015625)"/>
       <path d="M 494 0 
L 494 4581 
L 2072 4581 
Q 2606 4581 2888 4516 
Q 3281 4425 3559 4188 
Q 3922 3881 4101 3404 
Q 4281 2928 4281 2316 
Q 4281 1794 4159 1391 
Q 4038 988 3847 723 
Q 3656 459 3429 307 
Q 3203 156 2883 78 
Q 2563 0 2147 0 
L 494 0 
z
M 1100 541 
L 2078 541 
Q 2531 541 2789 625 
Q 3047 709 3200 863 
Q 3416 1078 3536 1442 
Q 3656 1806 3656 2325 
Q 3656 3044 3420 3430 
Q 3184 3816 2847 3947 
Q 2603 4041 2063 4041 
L 1100 4041 
L 1100 541 
z
" id="ArialMT-44" transform="scale(0.015625)"/>
       <path d="M 503 0 
L 503 4581 
L 2534 4581 
Q 3147 4581 3465 4457 
Q 3784 4334 3975 4021 
Q 4166 3709 4166 3331 
Q 4166 2844 3850 2509 
Q 3534 2175 2875 2084 
Q 3116 1969 3241 1856 
Q 3506 1613 3744 1247 
L 4541 0 
L 3778 0 
L 3172 953 
Q 2906 1366 2734 1584 
Q 2563 1803 2427 1890 
Q 2291 1978 2150 2013 
Q 2047 2034 1813 2034 
L 1109 2034 
L 1109 0 
L 503 0 
z
M 1109 2559 
L 2413 2559 
Q 2828 2559 3062 2645 
Q 3297 2731 3419 2920 
Q 3541 3109 3541 3331 
Q 3541 3656 3305 3865 
Q 3069 4075 2559 4075 
L 1109 4075 
L 1109 2559 
z
" id="ArialMT-52" transform="scale(0.015625)"/>
       <path d="M 791 -1347 
L 388 -1347 
Q 1322 153 1322 1656 
Q 1322 2244 1188 2822 
Q 1081 3291 891 3722 
Q 769 4003 388 4659 
L 791 4659 
Q 1378 3875 1659 3084 
Q 1900 2403 1900 1659 
Q 1900 816 1576 28 
Q 1253 -759 791 -1347 
z
" id="ArialMT-29" transform="scale(0.015625)"/>
      </defs>
      <use transform="translate(0 0.203125)" xlink:href="#ArialMT-2d"/>
      <use transform="translate(33.300781 0.203125)" xlink:href="#ArialMT-6c"/>
      <use transform="translate(55.517578 0.203125)" xlink:href="#ArialMT-6f"/>
      <use transform="translate(111.132812 0.203125)" xlink:href="#ArialMT-67"/>
      <use transform="translate(167.705078 -16.203125)scale(0.7)" xlink:href="#DejaVuSans-31"/>
      <use transform="translate(215.932617 -16.203125)scale(0.7)" xlink:href="#DejaVuSans-30"/>
      <use transform="translate(263.203125 0.203125)" xlink:href="#ArialMT-28"/>
      <use transform="translate(296.503906 0.203125)" xlink:href="#ArialMT-46"/>
      <use transform="translate(357.587891 0.203125)" xlink:href="#ArialMT-44"/>
      <use transform="translate(429.804688 0.203125)" xlink:href="#ArialMT-52"/>
      <use transform="translate(502.021484 0.203125)" xlink:href="#ArialMT-29"/>
     </g>
    </g>
   </g>
   <g id="matplotlib.axis_2"/>
   <g id="PathCollection_1">
    <path clip-path="url(#p5433dd1088)" d="M 428.692607 224.206908 
C 430.3049 224.206908 431.851374 223.566337 432.991438 222.426274 
C 434.131501 221.286211 434.772071 219.739736 434.772071 218.127443 
C 434.772071 216.51515 434.131501 214.968676 432.991438 213.828613 
C 431.851374 212.688549 430.3049 212.047979 428.692607 212.047979 
C 427.080314 212.047979 425.53384 212.688549 424.393776 213.828613 
C 423.253713 214.968676 422.613142 216.51515 422.613142 218.127443 
C 422.613142 219.739736 423.253713 221.286211 424.393776 222.426274 
C 425.53384 223.566337 427.080314 224.206908 428.692607 224.206908 
z
" style="fill:#bd645a;stroke:#ffffff;stroke-width:0.491184;"/>
    <path clip-path="url(#p5433dd1088)" d="M 440.791453 196.246631 
C 441.541521 196.246631 442.26097 195.948625 442.791348 195.418247 
C 443.321726 194.887869 443.619731 194.16842 443.619731 193.418352 
C 443.619731 192.668284 443.321726 191.948836 442.791348 191.418457 
C 442.26097 190.888079 441.541521 190.590074 440.791453 190.590074 
C 440.041385 190.590074 439.321937 190.888079 438.791558 191.418457 
C 438.26118 191.948836 437.963175 192.668284 437.963175 193.418352 
C 437.963175 194.16842 438.26118 194.887869 438.791558 195.418247 
C 439.321937 195.948625 440.041385 196.246631 440.791453 196.246631 
z
" style="fill:#ed7a6d;stroke:#ffffff;stroke-width:0.491184;"/>
    <path clip-path="url(#p5433dd1088)" d="M 455.578932 174.137449 
C 457.018504 174.137449 458.399309 173.565501 459.41724 172.547569 
C 460.435171 171.529638 461.007119 170.148833 461.007119 168.709261 
C 461.007119 167.269689 460.435171 165.888884 459.41724 164.870953 
C 458.399309 163.853022 457.018504 163.281074 455.578932 163.281074 
C 454.13936 163.281074 452.758555 163.853022 451.740624 164.870953 
C 450.722692 165.888884 450.150744 167.269689 450.150744 168.709261 
C 450.150744 170.148833 450.722692 171.529638 451.740624 172.547569 
C 452.758555 173.565501 454.13936 174.137449 455.578932 174.137449 
z
" style="fill:#ca6a5f;stroke:#ffffff;stroke-width:0.491184;"/>
    <path clip-path="url(#p5433dd1088)" d="M 464.092935 147.167987 
C 464.933049 147.167987 465.738868 146.834206 466.332919 146.240155 
C 466.92697 145.646104 467.260751 144.840285 467.260751 144.00017 
C 467.260751 143.160056 466.92697 142.354237 466.332919 141.760186 
C 465.738868 141.166135 464.933049 140.832354 464.092935 140.832354 
C 463.25282 140.832354 462.447001 141.166135 461.85295 141.760186 
C 461.258899 142.354237 460.925118 143.160056 460.925118 144.00017 
C 460.925118 144.840285 461.258899 145.646104 461.85295 146.240155 
C 462.447001 146.834206 463.25282 147.167987 464.092935 147.167987 
z
" style="fill:#ea796c;stroke:#ffffff;stroke-width:0.491184;"/>
    <path clip-path="url(#p5433dd1088)" d="M 476.191781 130.414369 
C 479.141712 130.414369 481.971218 129.242349 484.057134 127.156433 
C 486.14305 125.070517 487.31507 122.24101 487.31507 119.29108 
C 487.31507 116.341149 486.14305 113.511642 484.057134 111.425726 
C 481.971218 109.33981 479.141712 108.16779 476.191781 108.16779 
C 473.24185 108.16779 470.412344 109.33981 468.326428 111.425726 
C 466.240512 113.511642 465.068492 116.341149 465.068492 119.29108 
C 465.068492 122.24101 466.240512 125.070517 468.326428 127.156433 
C 470.412344 129.242349 473.24185 130.414369 476.191781 130.414369 
z
" style="fill:#2e2322;stroke:#ffffff;stroke-width:0.491184;"/>
    <path clip-path="url(#p5433dd1088)" d="M 518.761795 98.762758 
C 519.870548 98.762758 520.934039 98.322246 521.718046 97.538239 
C 522.502052 96.754232 522.942565 95.690742 522.942565 94.581989 
C 522.942565 93.473236 522.502052 92.409745 521.718046 91.625738 
C 520.934039 90.841731 519.870548 90.401219 518.761795 90.401219 
C 517.653042 90.401219 516.589551 90.841731 515.805544 91.625738 
C 515.021538 92.409745 514.581025 93.473236 514.581025 94.581989 
C 514.581025 95.690742 515.021538 96.754232 515.805544 97.538239 
C 516.589551 98.322246 517.653042 98.762758 518.761795 98.762758 
z
" style="fill:#de7367;stroke:#ffffff;stroke-width:0.491184;"/>
    <path clip-path="url(#p5433dd1088)" d="M 519.658006 76.553669 
C 521.429767 76.553669 523.1292 75.849741 524.382024 74.596916 
C 525.634849 73.344092 526.338777 71.644659 526.338777 69.872898 
C 526.338777 68.101137 525.634849 66.401704 524.382024 65.148879 
C 523.1292 63.896055 521.429767 63.192127 519.658006 63.192127 
C 517.886245 63.192127 516.186812 63.896055 514.933987 65.148879 
C 513.681163 66.401704 512.977235 68.101137 512.977235 69.872898 
C 512.977235 71.644659 513.681163 73.344092 514.933987 74.596916 
C 516.186812 75.849741 517.886245 76.553669 519.658006 76.553669 
z
" style="fill:#b15e55;stroke:#ffffff;stroke-width:0.491184;"/>
    <path clip-path="url(#p5433dd1088)" d="M 557.298861 50.629372 
C 558.748345 50.629372 560.138658 50.053485 561.163599 49.028545 
C 562.188539 48.003604 562.764425 46.613292 562.764425 45.163807 
C 562.764425 43.714322 562.188539 42.324009 561.163599 41.299069 
C 560.138658 40.274128 558.748345 39.698242 557.298861 39.698242 
C 555.849376 39.698242 554.459063 40.274128 553.434123 41.299069 
C 552.409182 42.324009 551.833296 43.714322 551.833296 45.163807 
C 551.833296 46.613292 552.409182 48.003604 553.434123 49.028545 
C 554.459063 50.053485 555.849376 50.629372 557.298861 50.629372 
z
" style="fill:#c96a5f;stroke:#ffffff;stroke-width:0.491184;"/>
   </g>
   <g id="PathCollection_2"/>
   <g id="PathCollection_3"/>
   <g id="PathCollection_4"/>
   <g id="PathCollection_5"/>
   <g id="PathCollection_6"/>
   <g id="PathCollection_7"/>
   <g id="PathCollection_8"/>
   <g id="PathCollection_9"/>
   <g id="patch_3">
    <path d="M 367.750271 226.775625 
L 367.750271 36.515625 
" style="fill:none;stroke:#cccccc;stroke-linecap:square;stroke-linejoin:miter;stroke-width:1.25;"/>
   </g>
   <g id="patch_4">
    <path d="M 646.750271 226.775625 
L 646.750271 36.515625 
" style="fill:none;stroke:#cccccc;stroke-linecap:square;stroke-linejoin:miter;stroke-width:1.25;"/>
   </g>
   <g id="patch_5">
    <path d="M 367.750271 226.775625 
L 646.750271 226.775625 
" style="fill:none;stroke:#cccccc;stroke-linecap:square;stroke-linejoin:miter;stroke-width:1.25;"/>
   </g>
   <g id="patch_6">
    <path d="M 367.750271 36.515625 
L 646.750271 36.515625 
" style="fill:none;stroke:#cccccc;stroke-linecap:square;stroke-linejoin:miter;stroke-width:1.25;"/>
   </g>
   <g id="text_9">
    <!-- serine family amino acid metabolic process (GO:0009069) -->
    <g style="fill:#262626;" transform="translate(36.55875 218.127443)scale(0.12 -0.12)">
     <defs>
      <path d="M 197 991 
L 753 1078 
Q 800 744 1014 566 
Q 1228 388 1613 388 
Q 2000 388 2187 545 
Q 2375 703 2375 916 
Q 2375 1106 2209 1216 
Q 2094 1291 1634 1406 
Q 1016 1563 777 1677 
Q 538 1791 414 1992 
Q 291 2194 291 2438 
Q 291 2659 392 2848 
Q 494 3038 669 3163 
Q 800 3259 1026 3326 
Q 1253 3394 1513 3394 
Q 1903 3394 2198 3281 
Q 2494 3169 2634 2976 
Q 2775 2784 2828 2463 
L 2278 2388 
Q 2241 2644 2061 2787 
Q 1881 2931 1553 2931 
Q 1166 2931 1000 2803 
Q 834 2675 834 2503 
Q 834 2394 903 2306 
Q 972 2216 1119 2156 
Q 1203 2125 1616 2013 
Q 2213 1853 2448 1751 
Q 2684 1650 2818 1456 
Q 2953 1263 2953 975 
Q 2953 694 2789 445 
Q 2625 197 2315 61 
Q 2006 -75 1616 -75 
Q 969 -75 630 194 
Q 291 463 197 991 
z
" id="ArialMT-73" transform="scale(0.015625)"/>
      <path d="M 2694 1069 
L 3275 997 
Q 3138 488 2766 206 
Q 2394 -75 1816 -75 
Q 1088 -75 661 373 
Q 234 822 234 1631 
Q 234 2469 665 2931 
Q 1097 3394 1784 3394 
Q 2450 3394 2872 2941 
Q 3294 2488 3294 1666 
Q 3294 1616 3291 1516 
L 816 1516 
Q 847 969 1125 678 
Q 1403 388 1819 388 
Q 2128 388 2347 550 
Q 2566 713 2694 1069 
z
M 847 1978 
L 2700 1978 
Q 2663 2397 2488 2606 
Q 2219 2931 1791 2931 
Q 1403 2931 1139 2672 
Q 875 2413 847 1978 
z
" id="ArialMT-65" transform="scale(0.015625)"/>
      <path d="M 416 0 
L 416 3319 
L 922 3319 
L 922 2816 
Q 1116 3169 1280 3281 
Q 1444 3394 1641 3394 
Q 1925 3394 2219 3213 
L 2025 2691 
Q 1819 2813 1613 2813 
Q 1428 2813 1281 2702 
Q 1134 2591 1072 2394 
Q 978 2094 978 1738 
L 978 0 
L 416 0 
z
" id="ArialMT-72" transform="scale(0.015625)"/>
      <path d="M 425 3934 
L 425 4581 
L 988 4581 
L 988 3934 
L 425 3934 
z
M 425 0 
L 425 3319 
L 988 3319 
L 988 0 
L 425 0 
z
" id="ArialMT-69" transform="scale(0.015625)"/>
      <path d="M 422 0 
L 422 3319 
L 928 3319 
L 928 2847 
Q 1294 3394 1984 3394 
Q 2284 3394 2536 3286 
Q 2788 3178 2913 3003 
Q 3038 2828 3088 2588 
Q 3119 2431 3119 2041 
L 3119 0 
L 2556 0 
L 2556 2019 
Q 2556 2363 2490 2533 
Q 2425 2703 2258 2804 
Q 2091 2906 1866 2906 
Q 1506 2906 1245 2678 
Q 984 2450 984 1813 
L 984 0 
L 422 0 
z
" id="ArialMT-6e" transform="scale(0.015625)"/>
      <path id="ArialMT-20" transform="scale(0.015625)"/>
      <path d="M 556 0 
L 556 2881 
L 59 2881 
L 59 3319 
L 556 3319 
L 556 3672 
Q 556 4006 616 4169 
Q 697 4388 901 4523 
Q 1106 4659 1475 4659 
Q 1713 4659 2000 4603 
L 1916 4113 
Q 1741 4144 1584 4144 
Q 1328 4144 1222 4034 
Q 1116 3925 1116 3625 
L 1116 3319 
L 1763 3319 
L 1763 2881 
L 1116 2881 
L 1116 0 
L 556 0 
z
" id="ArialMT-66" transform="scale(0.015625)"/>
      <path d="M 2588 409 
Q 2275 144 1986 34 
Q 1697 -75 1366 -75 
Q 819 -75 525 192 
Q 231 459 231 875 
Q 231 1119 342 1320 
Q 453 1522 633 1644 
Q 813 1766 1038 1828 
Q 1203 1872 1538 1913 
Q 2219 1994 2541 2106 
Q 2544 2222 2544 2253 
Q 2544 2597 2384 2738 
Q 2169 2928 1744 2928 
Q 1347 2928 1158 2789 
Q 969 2650 878 2297 
L 328 2372 
Q 403 2725 575 2942 
Q 747 3159 1072 3276 
Q 1397 3394 1825 3394 
Q 2250 3394 2515 3294 
Q 2781 3194 2906 3042 
Q 3031 2891 3081 2659 
Q 3109 2516 3109 2141 
L 3109 1391 
Q 3109 606 3145 398 
Q 3181 191 3288 0 
L 2700 0 
Q 2613 175 2588 409 
z
M 2541 1666 
Q 2234 1541 1622 1453 
Q 1275 1403 1131 1340 
Q 988 1278 909 1158 
Q 831 1038 831 891 
Q 831 666 1001 516 
Q 1172 366 1500 366 
Q 1825 366 2078 508 
Q 2331 650 2450 897 
Q 2541 1088 2541 1459 
L 2541 1666 
z
" id="ArialMT-61" transform="scale(0.015625)"/>
      <path d="M 422 0 
L 422 3319 
L 925 3319 
L 925 2853 
Q 1081 3097 1340 3245 
Q 1600 3394 1931 3394 
Q 2300 3394 2536 3241 
Q 2772 3088 2869 2813 
Q 3263 3394 3894 3394 
Q 4388 3394 4653 3120 
Q 4919 2847 4919 2278 
L 4919 0 
L 4359 0 
L 4359 2091 
Q 4359 2428 4304 2576 
Q 4250 2725 4106 2815 
Q 3963 2906 3769 2906 
Q 3419 2906 3187 2673 
Q 2956 2441 2956 1928 
L 2956 0 
L 2394 0 
L 2394 2156 
Q 2394 2531 2256 2718 
Q 2119 2906 1806 2906 
Q 1569 2906 1367 2781 
Q 1166 2656 1075 2415 
Q 984 2175 984 1722 
L 984 0 
L 422 0 
z
" id="ArialMT-6d" transform="scale(0.015625)"/>
      <path d="M 397 -1278 
L 334 -750 
Q 519 -800 656 -800 
Q 844 -800 956 -737 
Q 1069 -675 1141 -563 
Q 1194 -478 1313 -144 
Q 1328 -97 1363 -6 
L 103 3319 
L 709 3319 
L 1400 1397 
Q 1534 1031 1641 628 
Q 1738 1016 1872 1384 
L 2581 3319 
L 3144 3319 
L 1881 -56 
Q 1678 -603 1566 -809 
Q 1416 -1088 1222 -1217 
Q 1028 -1347 759 -1347 
Q 597 -1347 397 -1278 
z
" id="ArialMT-79" transform="scale(0.015625)"/>
      <path d="M 2588 1216 
L 3141 1144 
Q 3050 572 2676 248 
Q 2303 -75 1759 -75 
Q 1078 -75 664 370 
Q 250 816 250 1647 
Q 250 2184 428 2587 
Q 606 2991 970 3192 
Q 1334 3394 1763 3394 
Q 2303 3394 2647 3120 
Q 2991 2847 3088 2344 
L 2541 2259 
Q 2463 2594 2264 2762 
Q 2066 2931 1784 2931 
Q 1359 2931 1093 2626 
Q 828 2322 828 1663 
Q 828 994 1084 691 
Q 1341 388 1753 388 
Q 2084 388 2306 591 
Q 2528 794 2588 1216 
z
" id="ArialMT-63" transform="scale(0.015625)"/>
      <path d="M 2575 0 
L 2575 419 
Q 2259 -75 1647 -75 
Q 1250 -75 917 144 
Q 584 363 401 755 
Q 219 1147 219 1656 
Q 219 2153 384 2558 
Q 550 2963 881 3178 
Q 1213 3394 1622 3394 
Q 1922 3394 2156 3267 
Q 2391 3141 2538 2938 
L 2538 4581 
L 3097 4581 
L 3097 0 
L 2575 0 
z
M 797 1656 
Q 797 1019 1065 703 
Q 1334 388 1700 388 
Q 2069 388 2326 689 
Q 2584 991 2584 1609 
Q 2584 2291 2321 2609 
Q 2059 2928 1675 2928 
Q 1300 2928 1048 2622 
Q 797 2316 797 1656 
z
" id="ArialMT-64" transform="scale(0.015625)"/>
      <path d="M 1650 503 
L 1731 6 
Q 1494 -44 1306 -44 
Q 1000 -44 831 53 
Q 663 150 594 308 
Q 525 466 525 972 
L 525 2881 
L 113 2881 
L 113 3319 
L 525 3319 
L 525 4141 
L 1084 4478 
L 1084 3319 
L 1650 3319 
L 1650 2881 
L 1084 2881 
L 1084 941 
Q 1084 700 1114 631 
Q 1144 563 1211 522 
Q 1278 481 1403 481 
Q 1497 481 1650 503 
z
" id="ArialMT-74" transform="scale(0.015625)"/>
      <path d="M 941 0 
L 419 0 
L 419 4581 
L 981 4581 
L 981 2947 
Q 1338 3394 1891 3394 
Q 2197 3394 2470 3270 
Q 2744 3147 2920 2923 
Q 3097 2700 3197 2384 
Q 3297 2069 3297 1709 
Q 3297 856 2875 390 
Q 2453 -75 1863 -75 
Q 1275 -75 941 416 
L 941 0 
z
M 934 1684 
Q 934 1088 1097 822 
Q 1363 388 1816 388 
Q 2184 388 2453 708 
Q 2722 1028 2722 1663 
Q 2722 2313 2464 2622 
Q 2206 2931 1841 2931 
Q 1472 2931 1203 2611 
Q 934 2291 934 1684 
z
" id="ArialMT-62" transform="scale(0.015625)"/>
      <path d="M 422 -1272 
L 422 3319 
L 934 3319 
L 934 2888 
Q 1116 3141 1344 3267 
Q 1572 3394 1897 3394 
Q 2322 3394 2647 3175 
Q 2972 2956 3137 2557 
Q 3303 2159 3303 1684 
Q 3303 1175 3120 767 
Q 2938 359 2589 142 
Q 2241 -75 1856 -75 
Q 1575 -75 1351 44 
Q 1128 163 984 344 
L 984 -1272 
L 422 -1272 
z
M 931 1641 
Q 931 1000 1190 694 
Q 1450 388 1819 388 
Q 2194 388 2461 705 
Q 2728 1022 2728 1688 
Q 2728 2322 2467 2637 
Q 2206 2953 1844 2953 
Q 1484 2953 1207 2617 
Q 931 2281 931 1641 
z
" id="ArialMT-70" transform="scale(0.015625)"/>
      <path d="M 2638 1797 
L 2638 2334 
L 4578 2338 
L 4578 638 
Q 4131 281 3656 101 
Q 3181 -78 2681 -78 
Q 2006 -78 1454 211 
Q 903 500 622 1047 
Q 341 1594 341 2269 
Q 341 2938 620 3517 
Q 900 4097 1425 4378 
Q 1950 4659 2634 4659 
Q 3131 4659 3532 4498 
Q 3934 4338 4162 4050 
Q 4391 3763 4509 3300 
L 3963 3150 
Q 3859 3500 3706 3700 
Q 3553 3900 3268 4020 
Q 2984 4141 2638 4141 
Q 2222 4141 1919 4014 
Q 1616 3888 1430 3681 
Q 1244 3475 1141 3228 
Q 966 2803 966 2306 
Q 966 1694 1177 1281 
Q 1388 869 1791 669 
Q 2194 469 2647 469 
Q 3041 469 3416 620 
Q 3791 772 3984 944 
L 3984 1797 
L 2638 1797 
z
" id="ArialMT-47" transform="scale(0.015625)"/>
      <path d="M 309 2231 
Q 309 3372 921 4017 
Q 1534 4663 2503 4663 
Q 3138 4663 3647 4359 
Q 4156 4056 4423 3514 
Q 4691 2972 4691 2284 
Q 4691 1588 4409 1038 
Q 4128 488 3612 205 
Q 3097 -78 2500 -78 
Q 1853 -78 1343 234 
Q 834 547 571 1087 
Q 309 1628 309 2231 
z
M 934 2222 
Q 934 1394 1379 917 
Q 1825 441 2497 441 
Q 3181 441 3623 922 
Q 4066 1403 4066 2288 
Q 4066 2847 3877 3264 
Q 3688 3681 3323 3911 
Q 2959 4141 2506 4141 
Q 1863 4141 1398 3698 
Q 934 3256 934 2222 
z
" id="ArialMT-4f" transform="scale(0.015625)"/>
      <path d="M 578 2678 
L 578 3319 
L 1219 3319 
L 1219 2678 
L 578 2678 
z
M 578 0 
L 578 641 
L 1219 641 
L 1219 0 
L 578 0 
z
" id="ArialMT-3a" transform="scale(0.015625)"/>
      <path d="M 350 1059 
L 891 1109 
Q 959 728 1153 556 
Q 1347 384 1650 384 
Q 1909 384 2104 503 
Q 2300 622 2425 820 
Q 2550 1019 2634 1356 
Q 2719 1694 2719 2044 
Q 2719 2081 2716 2156 
Q 2547 1888 2255 1720 
Q 1963 1553 1622 1553 
Q 1053 1553 659 1965 
Q 266 2378 266 3053 
Q 266 3750 677 4175 
Q 1088 4600 1706 4600 
Q 2153 4600 2523 4359 
Q 2894 4119 3086 3673 
Q 3278 3228 3278 2384 
Q 3278 1506 3087 986 
Q 2897 466 2520 194 
Q 2144 -78 1638 -78 
Q 1100 -78 759 220 
Q 419 519 350 1059 
z
M 2653 3081 
Q 2653 3566 2395 3850 
Q 2138 4134 1775 4134 
Q 1400 4134 1122 3828 
Q 844 3522 844 3034 
Q 844 2597 1108 2323 
Q 1372 2050 1759 2050 
Q 2150 2050 2401 2323 
Q 2653 2597 2653 3081 
z
" id="ArialMT-39" transform="scale(0.015625)"/>
     </defs>
     <use xlink:href="#ArialMT-73"/>
     <use x="50" xlink:href="#ArialMT-65"/>
     <use x="105.615234" xlink:href="#ArialMT-72"/>
     <use x="138.916016" xlink:href="#ArialMT-69"/>
     <use x="161.132812" xlink:href="#ArialMT-6e"/>
     <use x="216.748047" xlink:href="#ArialMT-65"/>
     <use x="272.363281" xlink:href="#ArialMT-20"/>
     <use x="300.146484" xlink:href="#ArialMT-66"/>
     <use x="327.929688" xlink:href="#ArialMT-61"/>
     <use x="383.544922" xlink:href="#ArialMT-6d"/>
     <use x="466.845703" xlink:href="#ArialMT-69"/>
     <use x="489.0625" xlink:href="#ArialMT-6c"/>
     <use x="511.279297" xlink:href="#ArialMT-79"/>
     <use x="561.279297" xlink:href="#ArialMT-20"/>
     <use x="589.0625" xlink:href="#ArialMT-61"/>
     <use x="644.677734" xlink:href="#ArialMT-6d"/>
     <use x="727.978516" xlink:href="#ArialMT-69"/>
     <use x="750.195312" xlink:href="#ArialMT-6e"/>
     <use x="805.810547" xlink:href="#ArialMT-6f"/>
     <use x="861.425781" xlink:href="#ArialMT-20"/>
     <use x="889.208984" xlink:href="#ArialMT-61"/>
     <use x="944.824219" xlink:href="#ArialMT-63"/>
     <use x="994.824219" xlink:href="#ArialMT-69"/>
     <use x="1017.041016" xlink:href="#ArialMT-64"/>
     <use x="1072.65625" xlink:href="#ArialMT-20"/>
     <use x="1100.439453" xlink:href="#ArialMT-6d"/>
     <use x="1183.740234" xlink:href="#ArialMT-65"/>
     <use x="1239.355469" xlink:href="#ArialMT-74"/>
     <use x="1267.138672" xlink:href="#ArialMT-61"/>
     <use x="1322.753906" xlink:href="#ArialMT-62"/>
     <use x="1378.369141" xlink:href="#ArialMT-6f"/>
     <use x="1433.984375" xlink:href="#ArialMT-6c"/>
     <use x="1456.201172" xlink:href="#ArialMT-69"/>
     <use x="1478.417969" xlink:href="#ArialMT-63"/>
     <use x="1528.417969" xlink:href="#ArialMT-20"/>
     <use x="1556.201172" xlink:href="#ArialMT-70"/>
     <use x="1611.816406" xlink:href="#ArialMT-72"/>
     <use x="1645.117188" xlink:href="#ArialMT-6f"/>
     <use x="1700.732422" xlink:href="#ArialMT-63"/>
     <use x="1750.732422" xlink:href="#ArialMT-65"/>
     <use x="1806.347656" xlink:href="#ArialMT-73"/>
     <use x="1856.347656" xlink:href="#ArialMT-73"/>
     <use x="1906.347656" xlink:href="#ArialMT-20"/>
     <use x="1934.130859" xlink:href="#ArialMT-28"/>
     <use x="1967.431641" xlink:href="#ArialMT-47"/>
     <use x="2045.214844" xlink:href="#ArialMT-4f"/>
     <use x="2122.998047" xlink:href="#ArialMT-3a"/>
     <use x="2150.78125" xlink:href="#ArialMT-30"/>
     <use x="2206.396484" xlink:href="#ArialMT-30"/>
     <use x="2262.011719" xlink:href="#ArialMT-30"/>
     <use x="2317.626953" xlink:href="#ArialMT-39"/>
     <use x="2373.242188" xlink:href="#ArialMT-30"/>
     <use x="2428.857422" xlink:href="#ArialMT-36"/>
     <use x="2484.472656" xlink:href="#ArialMT-39"/>
     <use x="2540.087891" xlink:href="#ArialMT-29"/>
    </g>
   </g>
   <g id="text_10">
    <!-- oxoacid metabolic process (GO:0043436) -->
    <g style="fill:#262626;" transform="translate(123.91125 193.418352)scale(0.12 -0.12)">
     <defs>
      <path d="M 47 0 
L 1259 1725 
L 138 3319 
L 841 3319 
L 1350 2541 
Q 1494 2319 1581 2169 
Q 1719 2375 1834 2534 
L 2394 3319 
L 3066 3319 
L 1919 1756 
L 3153 0 
L 2463 0 
L 1781 1031 
L 1600 1309 
L 728 0 
L 47 0 
z
" id="ArialMT-78" transform="scale(0.015625)"/>
     </defs>
     <use xlink:href="#ArialMT-6f"/>
     <use x="55.615234" xlink:href="#ArialMT-78"/>
     <use x="105.615234" xlink:href="#ArialMT-6f"/>
     <use x="161.230469" xlink:href="#ArialMT-61"/>
     <use x="216.845703" xlink:href="#ArialMT-63"/>
     <use x="266.845703" xlink:href="#ArialMT-69"/>
     <use x="289.0625" xlink:href="#ArialMT-64"/>
     <use x="344.677734" xlink:href="#ArialMT-20"/>
     <use x="372.460938" xlink:href="#ArialMT-6d"/>
     <use x="455.761719" xlink:href="#ArialMT-65"/>
     <use x="511.376953" xlink:href="#ArialMT-74"/>
     <use x="539.160156" xlink:href="#ArialMT-61"/>
     <use x="594.775391" xlink:href="#ArialMT-62"/>
     <use x="650.390625" xlink:href="#ArialMT-6f"/>
     <use x="706.005859" xlink:href="#ArialMT-6c"/>
     <use x="728.222656" xlink:href="#ArialMT-69"/>
     <use x="750.439453" xlink:href="#ArialMT-63"/>
     <use x="800.439453" xlink:href="#ArialMT-20"/>
     <use x="828.222656" xlink:href="#ArialMT-70"/>
     <use x="883.837891" xlink:href="#ArialMT-72"/>
     <use x="917.138672" xlink:href="#ArialMT-6f"/>
     <use x="972.753906" xlink:href="#ArialMT-63"/>
     <use x="1022.753906" xlink:href="#ArialMT-65"/>
     <use x="1078.369141" xlink:href="#ArialMT-73"/>
     <use x="1128.369141" xlink:href="#ArialMT-73"/>
     <use x="1178.369141" xlink:href="#ArialMT-20"/>
     <use x="1206.152344" xlink:href="#ArialMT-28"/>
     <use x="1239.453125" xlink:href="#ArialMT-47"/>
     <use x="1317.236328" xlink:href="#ArialMT-4f"/>
     <use x="1395.019531" xlink:href="#ArialMT-3a"/>
     <use x="1422.802734" xlink:href="#ArialMT-30"/>
     <use x="1478.417969" xlink:href="#ArialMT-30"/>
     <use x="1534.033203" xlink:href="#ArialMT-34"/>
     <use x="1589.648438" xlink:href="#ArialMT-33"/>
     <use x="1645.263672" xlink:href="#ArialMT-34"/>
     <use x="1700.878906" xlink:href="#ArialMT-33"/>
     <use x="1756.494141" xlink:href="#ArialMT-36"/>
     <use x="1812.109375" xlink:href="#ArialMT-29"/>
    </g>
   </g>
   <g id="text_11">
    <!-- carboxylic acid transmembrane transport (GO:1905039) -->
    <g style="fill:#262626;" transform="translate(48.56625 168.709261)scale(0.12 -0.12)">
     <use xlink:href="#ArialMT-63"/>
     <use x="50" xlink:href="#ArialMT-61"/>
     <use x="105.615234" xlink:href="#ArialMT-72"/>
     <use x="138.916016" xlink:href="#ArialMT-62"/>
     <use x="194.53125" xlink:href="#ArialMT-6f"/>
     <use x="250.146484" xlink:href="#ArialMT-78"/>
     <use x="300.146484" xlink:href="#ArialMT-79"/>
     <use x="350.146484" xlink:href="#ArialMT-6c"/>
     <use x="372.363281" xlink:href="#ArialMT-69"/>
     <use x="394.580078" xlink:href="#ArialMT-63"/>
     <use x="444.580078" xlink:href="#ArialMT-20"/>
     <use x="472.363281" xlink:href="#ArialMT-61"/>
     <use x="527.978516" xlink:href="#ArialMT-63"/>
     <use x="577.978516" xlink:href="#ArialMT-69"/>
     <use x="600.195312" xlink:href="#ArialMT-64"/>
     <use x="655.810547" xlink:href="#ArialMT-20"/>
     <use x="683.59375" xlink:href="#ArialMT-74"/>
     <use x="711.376953" xlink:href="#ArialMT-72"/>
     <use x="744.677734" xlink:href="#ArialMT-61"/>
     <use x="800.292969" xlink:href="#ArialMT-6e"/>
     <use x="855.908203" xlink:href="#ArialMT-73"/>
     <use x="905.908203" xlink:href="#ArialMT-6d"/>
     <use x="989.208984" xlink:href="#ArialMT-65"/>
     <use x="1044.824219" xlink:href="#ArialMT-6d"/>
     <use x="1128.125" xlink:href="#ArialMT-62"/>
     <use x="1183.740234" xlink:href="#ArialMT-72"/>
     <use x="1217.041016" xlink:href="#ArialMT-61"/>
     <use x="1272.65625" xlink:href="#ArialMT-6e"/>
     <use x="1328.271484" xlink:href="#ArialMT-65"/>
     <use x="1383.886719" xlink:href="#ArialMT-20"/>
     <use x="1411.669922" xlink:href="#ArialMT-74"/>
     <use x="1439.453125" xlink:href="#ArialMT-72"/>
     <use x="1472.753906" xlink:href="#ArialMT-61"/>
     <use x="1528.369141" xlink:href="#ArialMT-6e"/>
     <use x="1583.984375" xlink:href="#ArialMT-73"/>
     <use x="1633.984375" xlink:href="#ArialMT-70"/>
     <use x="1689.599609" xlink:href="#ArialMT-6f"/>
     <use x="1745.214844" xlink:href="#ArialMT-72"/>
     <use x="1778.515625" xlink:href="#ArialMT-74"/>
     <use x="1806.298828" xlink:href="#ArialMT-20"/>
     <use x="1834.082031" xlink:href="#ArialMT-28"/>
     <use x="1867.382812" xlink:href="#ArialMT-47"/>
     <use x="1945.166016" xlink:href="#ArialMT-4f"/>
     <use x="2022.949219" xlink:href="#ArialMT-3a"/>
     <use x="2050.732422" xlink:href="#ArialMT-31"/>
     <use x="2106.347656" xlink:href="#ArialMT-39"/>
     <use x="2161.962891" xlink:href="#ArialMT-30"/>
     <use x="2217.578125" xlink:href="#ArialMT-35"/>
     <use x="2273.193359" xlink:href="#ArialMT-30"/>
     <use x="2328.808594" xlink:href="#ArialMT-33"/>
     <use x="2384.423828" xlink:href="#ArialMT-39"/>
     <use x="2440.039062" xlink:href="#ArialMT-29"/>
    </g>
   </g>
   <g id="text_12">
    <!-- small molecule biosynthetic process (GO:0044283) -->
    <g style="fill:#262626;" transform="translate(73.903125 144.00017)scale(0.12 -0.12)">
     <defs>
      <path d="M 2597 0 
L 2597 488 
Q 2209 -75 1544 -75 
Q 1250 -75 995 37 
Q 741 150 617 320 
Q 494 491 444 738 
Q 409 903 409 1263 
L 409 3319 
L 972 3319 
L 972 1478 
Q 972 1038 1006 884 
Q 1059 663 1231 536 
Q 1403 409 1656 409 
Q 1909 409 2131 539 
Q 2353 669 2445 892 
Q 2538 1116 2538 1541 
L 2538 3319 
L 3100 3319 
L 3100 0 
L 2597 0 
z
" id="ArialMT-75" transform="scale(0.015625)"/>
      <path d="M 422 0 
L 422 4581 
L 984 4581 
L 984 2938 
Q 1378 3394 1978 3394 
Q 2347 3394 2619 3248 
Q 2891 3103 3008 2847 
Q 3125 2591 3125 2103 
L 3125 0 
L 2563 0 
L 2563 2103 
Q 2563 2525 2380 2717 
Q 2197 2909 1863 2909 
Q 1613 2909 1392 2779 
Q 1172 2650 1078 2428 
Q 984 2206 984 1816 
L 984 0 
L 422 0 
z
" id="ArialMT-68" transform="scale(0.015625)"/>
      <path d="M 1131 2484 
Q 781 2613 612 2850 
Q 444 3088 444 3419 
Q 444 3919 803 4259 
Q 1163 4600 1759 4600 
Q 2359 4600 2725 4251 
Q 3091 3903 3091 3403 
Q 3091 3084 2923 2848 
Q 2756 2613 2416 2484 
Q 2838 2347 3058 2040 
Q 3278 1734 3278 1309 
Q 3278 722 2862 322 
Q 2447 -78 1769 -78 
Q 1091 -78 675 323 
Q 259 725 259 1325 
Q 259 1772 486 2073 
Q 713 2375 1131 2484 
z
M 1019 3438 
Q 1019 3113 1228 2906 
Q 1438 2700 1772 2700 
Q 2097 2700 2305 2904 
Q 2513 3109 2513 3406 
Q 2513 3716 2298 3927 
Q 2084 4138 1766 4138 
Q 1444 4138 1231 3931 
Q 1019 3725 1019 3438 
z
M 838 1322 
Q 838 1081 952 856 
Q 1066 631 1291 507 
Q 1516 384 1775 384 
Q 2178 384 2440 643 
Q 2703 903 2703 1303 
Q 2703 1709 2433 1975 
Q 2163 2241 1756 2241 
Q 1359 2241 1098 1978 
Q 838 1716 838 1322 
z
" id="ArialMT-38" transform="scale(0.015625)"/>
     </defs>
     <use xlink:href="#ArialMT-73"/>
     <use x="50" xlink:href="#ArialMT-6d"/>
     <use x="133.300781" xlink:href="#ArialMT-61"/>
     <use x="188.916016" xlink:href="#ArialMT-6c"/>
     <use x="211.132812" xlink:href="#ArialMT-6c"/>
     <use x="233.349609" xlink:href="#ArialMT-20"/>
     <use x="261.132812" xlink:href="#ArialMT-6d"/>
     <use x="344.433594" xlink:href="#ArialMT-6f"/>
     <use x="400.048828" xlink:href="#ArialMT-6c"/>
     <use x="422.265625" xlink:href="#ArialMT-65"/>
     <use x="477.880859" xlink:href="#ArialMT-63"/>
     <use x="527.880859" xlink:href="#ArialMT-75"/>
     <use x="583.496094" xlink:href="#ArialMT-6c"/>
     <use x="605.712891" xlink:href="#ArialMT-65"/>
     <use x="661.328125" xlink:href="#ArialMT-20"/>
     <use x="689.111328" xlink:href="#ArialMT-62"/>
     <use x="744.726562" xlink:href="#ArialMT-69"/>
     <use x="766.943359" xlink:href="#ArialMT-6f"/>
     <use x="822.558594" xlink:href="#ArialMT-73"/>
     <use x="872.558594" xlink:href="#ArialMT-79"/>
     <use x="922.558594" xlink:href="#ArialMT-6e"/>
     <use x="978.173828" xlink:href="#ArialMT-74"/>
     <use x="1005.957031" xlink:href="#ArialMT-68"/>
     <use x="1061.572266" xlink:href="#ArialMT-65"/>
     <use x="1117.1875" xlink:href="#ArialMT-74"/>
     <use x="1144.970703" xlink:href="#ArialMT-69"/>
     <use x="1167.1875" xlink:href="#ArialMT-63"/>
     <use x="1217.1875" xlink:href="#ArialMT-20"/>
     <use x="1244.970703" xlink:href="#ArialMT-70"/>
     <use x="1300.585938" xlink:href="#ArialMT-72"/>
     <use x="1333.886719" xlink:href="#ArialMT-6f"/>
     <use x="1389.501953" xlink:href="#ArialMT-63"/>
     <use x="1439.501953" xlink:href="#ArialMT-65"/>
     <use x="1495.117188" xlink:href="#ArialMT-73"/>
     <use x="1545.117188" xlink:href="#ArialMT-73"/>
     <use x="1595.117188" xlink:href="#ArialMT-20"/>
     <use x="1622.900391" xlink:href="#ArialMT-28"/>
     <use x="1656.201172" xlink:href="#ArialMT-47"/>
     <use x="1733.984375" xlink:href="#ArialMT-4f"/>
     <use x="1811.767578" xlink:href="#ArialMT-3a"/>
     <use x="1839.550781" xlink:href="#ArialMT-30"/>
     <use x="1895.166016" xlink:href="#ArialMT-30"/>
     <use x="1950.78125" xlink:href="#ArialMT-34"/>
     <use x="2006.396484" xlink:href="#ArialMT-34"/>
     <use x="2062.011719" xlink:href="#ArialMT-32"/>
     <use x="2117.626953" xlink:href="#ArialMT-38"/>
     <use x="2173.242188" xlink:href="#ArialMT-33"/>
     <use x="2228.857422" xlink:href="#ArialMT-29"/>
    </g>
   </g>
   <g id="text_13">
    <!-- lysine biosynthetic process via aminoadipic acid (GO:0019878) -->
    <g style="fill:#262626;" transform="translate(11.19375 119.29108)scale(0.12 -0.12)">
     <defs>
      <path d="M 1344 0 
L 81 3319 
L 675 3319 
L 1388 1331 
Q 1503 1009 1600 663 
Q 1675 925 1809 1294 
L 2547 3319 
L 3125 3319 
L 1869 0 
L 1344 0 
z
" id="ArialMT-76" transform="scale(0.015625)"/>
      <path d="M 303 3981 
L 303 4522 
L 3269 4522 
L 3269 4084 
Q 2831 3619 2401 2847 
Q 1972 2075 1738 1259 
Q 1569 684 1522 0 
L 944 0 
Q 953 541 1156 1306 
Q 1359 2072 1739 2783 
Q 2119 3494 2547 3981 
L 303 3981 
z
" id="ArialMT-37" transform="scale(0.015625)"/>
     </defs>
     <use xlink:href="#ArialMT-6c"/>
     <use x="22.216797" xlink:href="#ArialMT-79"/>
     <use x="72.216797" xlink:href="#ArialMT-73"/>
     <use x="122.216797" xlink:href="#ArialMT-69"/>
     <use x="144.433594" xlink:href="#ArialMT-6e"/>
     <use x="200.048828" xlink:href="#ArialMT-65"/>
     <use x="255.664062" xlink:href="#ArialMT-20"/>
     <use x="283.447266" xlink:href="#ArialMT-62"/>
     <use x="339.0625" xlink:href="#ArialMT-69"/>
     <use x="361.279297" xlink:href="#ArialMT-6f"/>
     <use x="416.894531" xlink:href="#ArialMT-73"/>
     <use x="466.894531" xlink:href="#ArialMT-79"/>
     <use x="516.894531" xlink:href="#ArialMT-6e"/>
     <use x="572.509766" xlink:href="#ArialMT-74"/>
     <use x="600.292969" xlink:href="#ArialMT-68"/>
     <use x="655.908203" xlink:href="#ArialMT-65"/>
     <use x="711.523438" xlink:href="#ArialMT-74"/>
     <use x="739.306641" xlink:href="#ArialMT-69"/>
     <use x="761.523438" xlink:href="#ArialMT-63"/>
     <use x="811.523438" xlink:href="#ArialMT-20"/>
     <use x="839.306641" xlink:href="#ArialMT-70"/>
     <use x="894.921875" xlink:href="#ArialMT-72"/>
     <use x="928.222656" xlink:href="#ArialMT-6f"/>
     <use x="983.837891" xlink:href="#ArialMT-63"/>
     <use x="1033.837891" xlink:href="#ArialMT-65"/>
     <use x="1089.453125" xlink:href="#ArialMT-73"/>
     <use x="1139.453125" xlink:href="#ArialMT-73"/>
     <use x="1189.453125" xlink:href="#ArialMT-20"/>
     <use x="1217.236328" xlink:href="#ArialMT-76"/>
     <use x="1267.236328" xlink:href="#ArialMT-69"/>
     <use x="1289.453125" xlink:href="#ArialMT-61"/>
     <use x="1345.068359" xlink:href="#ArialMT-20"/>
     <use x="1372.851562" xlink:href="#ArialMT-61"/>
     <use x="1428.466797" xlink:href="#ArialMT-6d"/>
     <use x="1511.767578" xlink:href="#ArialMT-69"/>
     <use x="1533.984375" xlink:href="#ArialMT-6e"/>
     <use x="1589.599609" xlink:href="#ArialMT-6f"/>
     <use x="1645.214844" xlink:href="#ArialMT-61"/>
     <use x="1700.830078" xlink:href="#ArialMT-64"/>
     <use x="1756.445312" xlink:href="#ArialMT-69"/>
     <use x="1778.662109" xlink:href="#ArialMT-70"/>
     <use x="1834.277344" xlink:href="#ArialMT-69"/>
     <use x="1856.494141" xlink:href="#ArialMT-63"/>
     <use x="1906.494141" xlink:href="#ArialMT-20"/>
     <use x="1934.277344" xlink:href="#ArialMT-61"/>
     <use x="1989.892578" xlink:href="#ArialMT-63"/>
     <use x="2039.892578" xlink:href="#ArialMT-69"/>
     <use x="2062.109375" xlink:href="#ArialMT-64"/>
     <use x="2117.724609" xlink:href="#ArialMT-20"/>
     <use x="2145.507812" xlink:href="#ArialMT-28"/>
     <use x="2178.808594" xlink:href="#ArialMT-47"/>
     <use x="2256.591797" xlink:href="#ArialMT-4f"/>
     <use x="2334.375" xlink:href="#ArialMT-3a"/>
     <use x="2362.158203" xlink:href="#ArialMT-30"/>
     <use x="2417.773438" xlink:href="#ArialMT-30"/>
     <use x="2473.388672" xlink:href="#ArialMT-31"/>
     <use x="2529.003906" xlink:href="#ArialMT-39"/>
     <use x="2584.619141" xlink:href="#ArialMT-38"/>
     <use x="2640.234375" xlink:href="#ArialMT-37"/>
     <use x="2695.849609" xlink:href="#ArialMT-38"/>
     <use x="2751.464844" xlink:href="#ArialMT-29"/>
    </g>
   </g>
   <g id="text_14">
    <!-- carboxylic acid biosynthetic process (GO:0046394) -->
    <g style="fill:#262626;" transform="translate(74.565 94.581989)scale(0.12 -0.12)">
     <use xlink:href="#ArialMT-63"/>
     <use x="50" xlink:href="#ArialMT-61"/>
     <use x="105.615234" xlink:href="#ArialMT-72"/>
     <use x="138.916016" xlink:href="#ArialMT-62"/>
     <use x="194.53125" xlink:href="#ArialMT-6f"/>
     <use x="250.146484" xlink:href="#ArialMT-78"/>
     <use x="300.146484" xlink:href="#ArialMT-79"/>
     <use x="350.146484" xlink:href="#ArialMT-6c"/>
     <use x="372.363281" xlink:href="#ArialMT-69"/>
     <use x="394.580078" xlink:href="#ArialMT-63"/>
     <use x="444.580078" xlink:href="#ArialMT-20"/>
     <use x="472.363281" xlink:href="#ArialMT-61"/>
     <use x="527.978516" xlink:href="#ArialMT-63"/>
     <use x="577.978516" xlink:href="#ArialMT-69"/>
     <use x="600.195312" xlink:href="#ArialMT-64"/>
     <use x="655.810547" xlink:href="#ArialMT-20"/>
     <use x="683.59375" xlink:href="#ArialMT-62"/>
     <use x="739.208984" xlink:href="#ArialMT-69"/>
     <use x="761.425781" xlink:href="#ArialMT-6f"/>
     <use x="817.041016" xlink:href="#ArialMT-73"/>
     <use x="867.041016" xlink:href="#ArialMT-79"/>
     <use x="917.041016" xlink:href="#ArialMT-6e"/>
     <use x="972.65625" xlink:href="#ArialMT-74"/>
     <use x="1000.439453" xlink:href="#ArialMT-68"/>
     <use x="1056.054688" xlink:href="#ArialMT-65"/>
     <use x="1111.669922" xlink:href="#ArialMT-74"/>
     <use x="1139.453125" xlink:href="#ArialMT-69"/>
     <use x="1161.669922" xlink:href="#ArialMT-63"/>
     <use x="1211.669922" xlink:href="#ArialMT-20"/>
     <use x="1239.453125" xlink:href="#ArialMT-70"/>
     <use x="1295.068359" xlink:href="#ArialMT-72"/>
     <use x="1328.369141" xlink:href="#ArialMT-6f"/>
     <use x="1383.984375" xlink:href="#ArialMT-63"/>
     <use x="1433.984375" xlink:href="#ArialMT-65"/>
     <use x="1489.599609" xlink:href="#ArialMT-73"/>
     <use x="1539.599609" xlink:href="#ArialMT-73"/>
     <use x="1589.599609" xlink:href="#ArialMT-20"/>
     <use x="1617.382812" xlink:href="#ArialMT-28"/>
     <use x="1650.683594" xlink:href="#ArialMT-47"/>
     <use x="1728.466797" xlink:href="#ArialMT-4f"/>
     <use x="1806.25" xlink:href="#ArialMT-3a"/>
     <use x="1834.033203" xlink:href="#ArialMT-30"/>
     <use x="1889.648438" xlink:href="#ArialMT-30"/>
     <use x="1945.263672" xlink:href="#ArialMT-34"/>
     <use x="2000.878906" xlink:href="#ArialMT-36"/>
     <use x="2056.494141" xlink:href="#ArialMT-33"/>
     <use x="2112.109375" xlink:href="#ArialMT-39"/>
     <use x="2167.724609" xlink:href="#ArialMT-34"/>
     <use x="2223.339844" xlink:href="#ArialMT-29"/>
    </g>
   </g>
   <g id="text_15">
    <!-- aspartate family amino acid biosynthetic process (GO:0009067) -->
    <g style="fill:#262626;" transform="translate(7.2 69.872898)scale(0.12 -0.12)">
     <use xlink:href="#ArialMT-61"/>
     <use x="55.615234" xlink:href="#ArialMT-73"/>
     <use x="105.615234" xlink:href="#ArialMT-70"/>
     <use x="161.230469" xlink:href="#ArialMT-61"/>
     <use x="216.845703" xlink:href="#ArialMT-72"/>
     <use x="250.146484" xlink:href="#ArialMT-74"/>
     <use x="277.929688" xlink:href="#ArialMT-61"/>
     <use x="333.544922" xlink:href="#ArialMT-74"/>
     <use x="361.328125" xlink:href="#ArialMT-65"/>
     <use x="416.943359" xlink:href="#ArialMT-20"/>
     <use x="444.726562" xlink:href="#ArialMT-66"/>
     <use x="472.509766" xlink:href="#ArialMT-61"/>
     <use x="528.125" xlink:href="#ArialMT-6d"/>
     <use x="611.425781" xlink:href="#ArialMT-69"/>
     <use x="633.642578" xlink:href="#ArialMT-6c"/>
     <use x="655.859375" xlink:href="#ArialMT-79"/>
     <use x="705.859375" xlink:href="#ArialMT-20"/>
     <use x="733.642578" xlink:href="#ArialMT-61"/>
     <use x="789.257812" xlink:href="#ArialMT-6d"/>
     <use x="872.558594" xlink:href="#ArialMT-69"/>
     <use x="894.775391" xlink:href="#ArialMT-6e"/>
     <use x="950.390625" xlink:href="#ArialMT-6f"/>
     <use x="1006.005859" xlink:href="#ArialMT-20"/>
     <use x="1033.789062" xlink:href="#ArialMT-61"/>
     <use x="1089.404297" xlink:href="#ArialMT-63"/>
     <use x="1139.404297" xlink:href="#ArialMT-69"/>
     <use x="1161.621094" xlink:href="#ArialMT-64"/>
     <use x="1217.236328" xlink:href="#ArialMT-20"/>
     <use x="1245.019531" xlink:href="#ArialMT-62"/>
     <use x="1300.634766" xlink:href="#ArialMT-69"/>
     <use x="1322.851562" xlink:href="#ArialMT-6f"/>
     <use x="1378.466797" xlink:href="#ArialMT-73"/>
     <use x="1428.466797" xlink:href="#ArialMT-79"/>
     <use x="1478.466797" xlink:href="#ArialMT-6e"/>
     <use x="1534.082031" xlink:href="#ArialMT-74"/>
     <use x="1561.865234" xlink:href="#ArialMT-68"/>
     <use x="1617.480469" xlink:href="#ArialMT-65"/>
     <use x="1673.095703" xlink:href="#ArialMT-74"/>
     <use x="1700.878906" xlink:href="#ArialMT-69"/>
     <use x="1723.095703" xlink:href="#ArialMT-63"/>
     <use x="1773.095703" xlink:href="#ArialMT-20"/>
     <use x="1800.878906" xlink:href="#ArialMT-70"/>
     <use x="1856.494141" xlink:href="#ArialMT-72"/>
     <use x="1889.794922" xlink:href="#ArialMT-6f"/>
     <use x="1945.410156" xlink:href="#ArialMT-63"/>
     <use x="1995.410156" xlink:href="#ArialMT-65"/>
     <use x="2051.025391" xlink:href="#ArialMT-73"/>
     <use x="2101.025391" xlink:href="#ArialMT-73"/>
     <use x="2151.025391" xlink:href="#ArialMT-20"/>
     <use x="2178.808594" xlink:href="#ArialMT-28"/>
     <use x="2212.109375" xlink:href="#ArialMT-47"/>
     <use x="2289.892578" xlink:href="#ArialMT-4f"/>
     <use x="2367.675781" xlink:href="#ArialMT-3a"/>
     <use x="2395.458984" xlink:href="#ArialMT-30"/>
     <use x="2451.074219" xlink:href="#ArialMT-30"/>
     <use x="2506.689453" xlink:href="#ArialMT-30"/>
     <use x="2562.304688" xlink:href="#ArialMT-39"/>
     <use x="2617.919922" xlink:href="#ArialMT-30"/>
     <use x="2673.535156" xlink:href="#ArialMT-36"/>
     <use x="2729.150391" xlink:href="#ArialMT-37"/>
     <use x="2784.765625" xlink:href="#ArialMT-29"/>
    </g>
   </g>
   <g id="text_16">
    <!-- alpha-amino acid biosynthetic process (GO:1901607) -->
    <g style="fill:#262626;" transform="translate(61.876875 45.163807)scale(0.12 -0.12)">
     <use xlink:href="#ArialMT-61"/>
     <use x="55.615234" xlink:href="#ArialMT-6c"/>
     <use x="77.832031" xlink:href="#ArialMT-70"/>
     <use x="133.447266" xlink:href="#ArialMT-68"/>
     <use x="189.0625" xlink:href="#ArialMT-61"/>
     <use x="244.677734" xlink:href="#ArialMT-2d"/>
     <use x="277.978516" xlink:href="#ArialMT-61"/>
     <use x="333.59375" xlink:href="#ArialMT-6d"/>
     <use x="416.894531" xlink:href="#ArialMT-69"/>
     <use x="439.111328" xlink:href="#ArialMT-6e"/>
     <use x="494.726562" xlink:href="#ArialMT-6f"/>
     <use x="550.341797" xlink:href="#ArialMT-20"/>
     <use x="578.125" xlink:href="#ArialMT-61"/>
     <use x="633.740234" xlink:href="#ArialMT-63"/>
     <use x="683.740234" xlink:href="#ArialMT-69"/>
     <use x="705.957031" xlink:href="#ArialMT-64"/>
     <use x="761.572266" xlink:href="#ArialMT-20"/>
     <use x="789.355469" xlink:href="#ArialMT-62"/>
     <use x="844.970703" xlink:href="#ArialMT-69"/>
     <use x="867.1875" xlink:href="#ArialMT-6f"/>
     <use x="922.802734" xlink:href="#ArialMT-73"/>
     <use x="972.802734" xlink:href="#ArialMT-79"/>
     <use x="1022.802734" xlink:href="#ArialMT-6e"/>
     <use x="1078.417969" xlink:href="#ArialMT-74"/>
     <use x="1106.201172" xlink:href="#ArialMT-68"/>
     <use x="1161.816406" xlink:href="#ArialMT-65"/>
     <use x="1217.431641" xlink:href="#ArialMT-74"/>
     <use x="1245.214844" xlink:href="#ArialMT-69"/>
     <use x="1267.431641" xlink:href="#ArialMT-63"/>
     <use x="1317.431641" xlink:href="#ArialMT-20"/>
     <use x="1345.214844" xlink:href="#ArialMT-70"/>
     <use x="1400.830078" xlink:href="#ArialMT-72"/>
     <use x="1434.130859" xlink:href="#ArialMT-6f"/>
     <use x="1489.746094" xlink:href="#ArialMT-63"/>
     <use x="1539.746094" xlink:href="#ArialMT-65"/>
     <use x="1595.361328" xlink:href="#ArialMT-73"/>
     <use x="1645.361328" xlink:href="#ArialMT-73"/>
     <use x="1695.361328" xlink:href="#ArialMT-20"/>
     <use x="1723.144531" xlink:href="#ArialMT-28"/>
     <use x="1756.445312" xlink:href="#ArialMT-47"/>
     <use x="1834.228516" xlink:href="#ArialMT-4f"/>
     <use x="1912.011719" xlink:href="#ArialMT-3a"/>
     <use x="1939.794922" xlink:href="#ArialMT-31"/>
     <use x="1995.410156" xlink:href="#ArialMT-39"/>
     <use x="2051.025391" xlink:href="#ArialMT-30"/>
     <use x="2106.640625" xlink:href="#ArialMT-31"/>
     <use x="2162.255859" xlink:href="#ArialMT-36"/>
     <use x="2217.871094" xlink:href="#ArialMT-30"/>
     <use x="2273.486328" xlink:href="#ArialMT-37"/>
     <use x="2329.101562" xlink:href="#ArialMT-29"/>
    </g>
   </g>
   <g id="text_17">
    <!-- CTP1 Correlation GO Terms -->
    <g style="fill:#262626;" transform="translate(381.850271 21.515625)scale(0.2 -0.2)">
     <defs>
      <path d="M 3763 1606 
L 4369 1453 
Q 4178 706 3683 314 
Q 3188 -78 2472 -78 
Q 1731 -78 1267 223 
Q 803 525 561 1097 
Q 319 1669 319 2325 
Q 319 3041 592 3573 
Q 866 4106 1370 4382 
Q 1875 4659 2481 4659 
Q 3169 4659 3637 4309 
Q 4106 3959 4291 3325 
L 3694 3184 
Q 3534 3684 3231 3912 
Q 2928 4141 2469 4141 
Q 1941 4141 1586 3887 
Q 1231 3634 1087 3207 
Q 944 2781 944 2328 
Q 944 1744 1114 1308 
Q 1284 872 1643 656 
Q 2003 441 2422 441 
Q 2931 441 3284 734 
Q 3638 1028 3763 1606 
z
" id="ArialMT-43" transform="scale(0.015625)"/>
      <path d="M 1659 0 
L 1659 4041 
L 150 4041 
L 150 4581 
L 3781 4581 
L 3781 4041 
L 2266 4041 
L 2266 0 
L 1659 0 
z
" id="ArialMT-54" transform="scale(0.015625)"/>
      <path d="M 494 0 
L 494 4581 
L 2222 4581 
Q 2678 4581 2919 4538 
Q 3256 4481 3484 4323 
Q 3713 4166 3852 3881 
Q 3991 3597 3991 3256 
Q 3991 2672 3619 2267 
Q 3247 1863 2275 1863 
L 1100 1863 
L 1100 0 
L 494 0 
z
M 1100 2403 
L 2284 2403 
Q 2872 2403 3119 2622 
Q 3366 2841 3366 3238 
Q 3366 3525 3220 3729 
Q 3075 3934 2838 4000 
Q 2684 4041 2272 4041 
L 1100 4041 
L 1100 2403 
z
" id="ArialMT-50" transform="scale(0.015625)"/>
     </defs>
     <use xlink:href="#ArialMT-43"/>
     <use x="72.216797" xlink:href="#ArialMT-54"/>
     <use x="133.300781" xlink:href="#ArialMT-50"/>
     <use x="200" xlink:href="#ArialMT-31"/>
     <use x="255.615234" xlink:href="#ArialMT-20"/>
     <use x="283.398438" xlink:href="#ArialMT-43"/>
     <use x="355.615234" xlink:href="#ArialMT-6f"/>
     <use x="411.230469" xlink:href="#ArialMT-72"/>
     <use x="444.53125" xlink:href="#ArialMT-72"/>
     <use x="477.832031" xlink:href="#ArialMT-65"/>
     <use x="533.447266" xlink:href="#ArialMT-6c"/>
     <use x="555.664062" xlink:href="#ArialMT-61"/>
     <use x="611.279297" xlink:href="#ArialMT-74"/>
     <use x="639.0625" xlink:href="#ArialMT-69"/>
     <use x="661.279297" xlink:href="#ArialMT-6f"/>
     <use x="716.894531" xlink:href="#ArialMT-6e"/>
     <use x="772.509766" xlink:href="#ArialMT-20"/>
     <use x="800.292969" xlink:href="#ArialMT-47"/>
     <use x="878.076172" xlink:href="#ArialMT-4f"/>
     <use x="955.859375" xlink:href="#ArialMT-20"/>
     <use x="981.892578" xlink:href="#ArialMT-54"/>
     <use x="1031.851562" xlink:href="#ArialMT-65"/>
     <use x="1087.466797" xlink:href="#ArialMT-72"/>
     <use x="1120.767578" xlink:href="#ArialMT-6d"/>
     <use x="1204.068359" xlink:href="#ArialMT-73"/>
    </g>
   </g>
   <g id="legend_1">
    <g id="patch_7">
     <path d="M 668.400271 212.7374 
L 791.610583 212.7374 
Q 793.810583 212.7374 793.810583 210.5374 
L 793.810583 42.313025 
Q 793.810583 40.113025 791.610583 40.113025 
L 668.400271 40.113025 
Q 666.200271 40.113025 666.200271 42.313025 
L 666.200271 210.5374 
Q 666.200271 212.7374 668.400271 212.7374 
z
" style="fill:#ffffff;opacity:0.8;stroke:#cccccc;stroke-linejoin:miter;"/>
    </g>
    <g id="text_18">
     <!-- Fold Change -->
     <g style="fill:#262626;" transform="translate(708.000271 59.120681)scale(0.11 -0.11)">
      <use xlink:href="#ArialMT-46"/>
      <use x="61.083984" xlink:href="#ArialMT-6f"/>
      <use x="116.699219" xlink:href="#ArialMT-6c"/>
      <use x="138.916016" xlink:href="#ArialMT-64"/>
      <use x="194.53125" xlink:href="#ArialMT-20"/>
      <use x="222.314453" xlink:href="#ArialMT-43"/>
      <use x="294.53125" xlink:href="#ArialMT-68"/>
      <use x="350.146484" xlink:href="#ArialMT-61"/>
      <use x="405.761719" xlink:href="#ArialMT-6e"/>
      <use x="461.376953" xlink:href="#ArialMT-67"/>
      <use x="516.992188" xlink:href="#ArialMT-65"/>
     </g>
    </g>
    <g id="PathCollection_10">
     <defs>
      <path d="M 0 3 
C 0.795609 3 1.55874 2.683901 2.12132 2.12132 
C 2.683901 1.55874 3 0.795609 3 0 
C 3 -0.795609 2.683901 -1.55874 2.12132 -2.12132 
C 1.55874 -2.683901 0.795609 -3 0 -3 
C -0.795609 -3 -1.55874 -2.683901 -2.12132 -2.12132 
C -2.683901 -1.55874 -3 -0.795609 -3 0 
C -3 0.795609 -2.683901 1.55874 -2.12132 2.12132 
C -1.55874 2.683901 -0.795609 3 0 3 
z
" id="m064e0c4048" style="stroke:#d06d62;"/>
     </defs>
     <g>
      <use style="fill:#d06d62;stroke:#d06d62;" x="688.200271" xlink:href="#m064e0c4048" y="71.921931"/>
     </g>
    </g>
    <g id="text_19">
     <!-- 20 -->
     <g style="fill:#262626;" transform="translate(708.000271 74.809431)scale(0.11 -0.11)">
      <use xlink:href="#ArialMT-32"/>
      <use x="55.615234" xlink:href="#ArialMT-30"/>
     </g>
    </g>
    <g id="PathCollection_11">
     <defs>
      <path d="M 0 3 
C 0.795609 3 1.55874 2.683901 2.12132 2.12132 
C 2.683901 1.55874 3 0.795609 3 0 
C 3 -0.795609 2.683901 -1.55874 2.12132 -2.12132 
C 1.55874 -2.683901 0.795609 -3 0 -3 
C -0.795609 -3 -1.55874 -2.683901 -2.12132 -2.12132 
C -2.683901 -1.55874 -3 -0.795609 -3 0 
C -3 0.795609 -2.683901 1.55874 -2.12132 2.12132 
C -1.55874 2.683901 -0.795609 3 0 3 
z
" id="m9bd6eda1a2" style="stroke:#a65a51;"/>
     </defs>
     <g>
      <use style="fill:#a65a51;stroke:#a65a51;" x="688.200271" xlink:href="#m9bd6eda1a2" y="87.481775"/>
     </g>
    </g>
    <g id="text_20">
     <!-- 40 -->
     <g style="fill:#262626;" transform="translate(708.000271 90.369275)scale(0.11 -0.11)">
      <use xlink:href="#ArialMT-34"/>
      <use x="55.615234" xlink:href="#ArialMT-30"/>
     </g>
    </g>
    <g id="PathCollection_12">
     <defs>
      <path d="M 0 3 
C 0.795609 3 1.55874 2.683901 2.12132 2.12132 
C 2.683901 1.55874 3 0.795609 3 0 
C 3 -0.795609 2.683901 -1.55874 2.12132 -2.12132 
C 1.55874 -2.683901 0.795609 -3 0 -3 
C -0.795609 -3 -1.55874 -2.683901 -2.12132 -2.12132 
C -2.683901 -1.55874 -3 -0.795609 -3 0 
C -3 0.795609 -2.683901 1.55874 -2.12132 2.12132 
C -1.55874 2.683901 -0.795609 3 0 3 
z
" id="mead91c87ed" style="stroke:#7c4641;"/>
     </defs>
     <g>
      <use style="fill:#7c4641;stroke:#7c4641;" x="688.200271" xlink:href="#mead91c87ed" y="103.041619"/>
     </g>
    </g>
    <g id="text_21">
     <!-- 60 -->
     <g style="fill:#262626;" transform="translate(708.000271 105.929119)scale(0.11 -0.11)">
      <use xlink:href="#ArialMT-36"/>
      <use x="55.615234" xlink:href="#ArialMT-30"/>
     </g>
    </g>
    <g id="PathCollection_13">
     <defs>
      <path d="M 0 3 
C 0.795609 3 1.55874 2.683901 2.12132 2.12132 
C 2.683901 1.55874 3 0.795609 3 0 
C 3 -0.795609 2.683901 -1.55874 2.12132 -2.12132 
C 1.55874 -2.683901 0.795609 -3 0 -3 
C -0.795609 -3 -1.55874 -2.683901 -2.12132 -2.12132 
C -2.683901 -1.55874 -3 -0.795609 -3 0 
C -3 0.795609 -2.683901 1.55874 -2.12132 2.12132 
C -1.55874 2.683901 -0.795609 3 0 3 
z
" id="mc47f3f9274" style="stroke:#513330;"/>
     </defs>
     <g>
      <use style="fill:#513330;stroke:#513330;" x="688.200271" xlink:href="#mc47f3f9274" y="118.601463"/>
     </g>
    </g>
    <g id="text_22">
     <!-- 80 -->
     <g style="fill:#262626;" transform="translate(708.000271 121.488963)scale(0.11 -0.11)">
      <use xlink:href="#ArialMT-38"/>
      <use x="55.615234" xlink:href="#ArialMT-30"/>
     </g>
    </g>
    <g id="text_23">
     <!-- | Fold Change | -->
     <g style="fill:#262626;" transform="translate(708.000271 137.182869)scale(0.11 -0.11)">
      <defs>
       <path d="M 588 -1347 
L 588 4659 
L 1078 4659 
L 1078 -1347 
L 588 -1347 
z
" id="ArialMT-7c" transform="scale(0.015625)"/>
      </defs>
      <use xlink:href="#ArialMT-7c"/>
      <use x="25.976562" xlink:href="#ArialMT-20"/>
      <use x="53.759766" xlink:href="#ArialMT-46"/>
      <use x="114.84375" xlink:href="#ArialMT-6f"/>
      <use x="170.458984" xlink:href="#ArialMT-6c"/>
      <use x="192.675781" xlink:href="#ArialMT-64"/>
      <use x="248.291016" xlink:href="#ArialMT-20"/>
      <use x="276.074219" xlink:href="#ArialMT-43"/>
      <use x="348.291016" xlink:href="#ArialMT-68"/>
      <use x="403.90625" xlink:href="#ArialMT-61"/>
      <use x="459.521484" xlink:href="#ArialMT-6e"/>
      <use x="515.136719" xlink:href="#ArialMT-67"/>
      <use x="570.751953" xlink:href="#ArialMT-65"/>
      <use x="626.367188" xlink:href="#ArialMT-20"/>
      <use x="654.150391" xlink:href="#ArialMT-7c"/>
     </g>
    </g>
    <g id="PathCollection_14">
     <defs>
      <path d="M 0 5.62206 
C 1.490988 5.62206 2.921109 5.029685 3.975397 3.975397 
C 5.029685 2.921109 5.62206 1.490988 5.62206 0 
C 5.62206 -1.490988 5.029685 -2.921109 3.975397 -3.975397 
C 2.921109 -5.029685 1.490988 -5.62206 0 -5.62206 
C -1.490988 -5.62206 -2.921109 -5.029685 -3.975397 -3.975397 
C -5.029685 -2.921109 -5.62206 -1.490988 -5.62206 0 
C -5.62206 1.490988 -5.029685 2.921109 -3.975397 3.975397 
C -2.921109 5.029685 -1.490988 5.62206 0 5.62206 
z
" id="m36cca8c7a5" style="stroke:#333333;"/>
     </defs>
     <g>
      <use style="fill:#333333;stroke:#333333;" x="688.200271" xlink:href="#m36cca8c7a5" y="149.984119"/>
     </g>
    </g>
    <g id="text_24">
     <!-- 20 -->
     <g style="fill:#262626;" transform="translate(708.000271 152.871619)scale(0.11 -0.11)">
      <use xlink:href="#ArialMT-32"/>
      <use x="55.615234" xlink:href="#ArialMT-30"/>
     </g>
    </g>
    <g id="PathCollection_15">
     <defs>
      <path d="M 0 7.430745 
C 1.970657 7.430745 3.860865 6.647795 5.25433 5.25433 
C 6.647795 3.860865 7.430745 1.970657 7.430745 0 
C 7.430745 -1.970657 6.647795 -3.860865 5.25433 -5.25433 
C 3.860865 -6.647795 1.970657 -7.430745 0 -7.430745 
C -1.970657 -7.430745 -3.860865 -6.647795 -5.25433 -5.25433 
C -6.647795 -3.860865 -7.430745 -1.970657 -7.430745 0 
C -7.430745 1.970657 -6.647795 3.860865 -5.25433 5.25433 
C -3.860865 6.647795 -1.970657 7.430745 0 7.430745 
z
" id="mbcf7c7a921" style="stroke:#333333;"/>
     </defs>
     <g>
      <use style="fill:#333333;stroke:#333333;" x="688.200271" xlink:href="#mbcf7c7a921" y="165.543963"/>
     </g>
    </g>
    <g id="text_25">
     <!-- 40 -->
     <g style="fill:#262626;" transform="translate(708.000271 168.431463)scale(0.11 -0.11)">
      <use xlink:href="#ArialMT-34"/>
      <use x="55.615234" xlink:href="#ArialMT-30"/>
     </g>
    </g>
    <g id="PathCollection_16">
     <defs>
      <path d="M 0 8.878309 
C 2.354555 8.878309 4.612991 7.942835 6.277913 6.277913 
C 7.942835 4.612991 8.878309 2.354555 8.878309 0 
C 8.878309 -2.354555 7.942835 -4.612991 6.277913 -6.277913 
C 4.612991 -7.942835 2.354555 -8.878309 0 -8.878309 
C -2.354555 -8.878309 -4.612991 -7.942835 -6.277913 -6.277913 
C -7.942835 -4.612991 -8.878309 -2.354555 -8.878309 0 
C -8.878309 2.354555 -7.942835 4.612991 -6.277913 6.277913 
C -4.612991 7.942835 -2.354555 8.878309 0 8.878309 
z
" id="mcc5de05b89" style="stroke:#333333;"/>
     </defs>
     <g>
      <use style="fill:#333333;stroke:#333333;" x="688.200271" xlink:href="#mcc5de05b89" y="181.103806"/>
     </g>
    </g>
    <g id="text_26">
     <!-- 60 -->
     <g style="fill:#262626;" transform="translate(708.000271 183.991306)scale(0.11 -0.11)">
      <use xlink:href="#ArialMT-36"/>
      <use x="55.615234" xlink:href="#ArialMT-30"/>
     </g>
    </g>
    <g id="PathCollection_17">
     <defs>
      <path d="M 0 10.120908 
C 2.684096 10.120908 5.25862 9.054505 7.156563 7.156563 
C 9.054505 5.25862 10.120908 2.684096 10.120908 0 
C 10.120908 -2.684096 9.054505 -5.25862 7.156563 -7.156563 
C 5.25862 -9.054505 2.684096 -10.120908 0 -10.120908 
C -2.684096 -10.120908 -5.25862 -9.054505 -7.156563 -7.156563 
C -9.054505 -5.25862 -10.120908 -2.684096 -10.120908 0 
C -10.120908 2.684096 -9.054505 5.25862 -7.156563 7.156563 
C -5.25862 9.054505 -2.684096 10.120908 0 10.120908 
z
" id="m8845552f68" style="stroke:#333333;"/>
     </defs>
     <g>
      <use style="fill:#333333;stroke:#333333;" x="688.200271" xlink:href="#m8845552f68" y="196.66365"/>
     </g>
    </g>
    <g id="text_27">
     <!-- 80 -->
     <g style="fill:#262626;" transform="translate(708.000271 199.55115)scale(0.11 -0.11)">
      <use xlink:href="#ArialMT-38"/>
      <use x="55.615234" xlink:href="#ArialMT-30"/>
     </g>
    </g>
   </g>
  </g>
 </g>
 <defs>
  <clipPath id="p5433dd1088">
   <rect height="190.26" width="279" x="367.750271" y="36.515625"/>
  </clipPath>
 </defs>
</svg>
