<svg xmlns="http://www.w3.org/2000/svg" width="1110" height="405" id="line-graph"><g transform="translate(75,50)"><g class="x axis" transform="translate(30,325)" fill="none" font-size="10" font-family="sans-serif" text-anchor="middle"><path class="domain" stroke="currentColor" d="M0.5,6V0.5H940.5V6"/><g class="tick" opacity="1" transform="translate(0.5,0)"><line stroke="currentColor" y2="6"/><text fill="currentColor" y="9" dy="0.71em">0min</text></g><g class="tick" opacity="1" transform="translate(235.5,0)"><line stroke="currentColor" y2="6"/><text fill="currentColor" y="9" dy="0.71em">15min</text></g><g class="tick" opacity="1" transform="translate(470.5,0)"><line stroke="currentColor" y2="6"/><text fill="currentColor" y="9" dy="0.71em">30min</text></g><g class="tick" opacity="1" transform="translate(705.5,0)"><line stroke="currentColor" y2="6"/><text fill="currentColor" y="9" dy="0.71em">60min</text></g><g class="tick" opacity="1" transform="translate(940.5,0)"><line stroke="currentColor" y2="6"/><text fill="currentColor" y="9" dy="0.71em">180min</text></g></g><g class="y axis" fill="none" font-size="10" font-family="sans-serif" text-anchor="end"><path class="domain" stroke="currentColor" d="M-6,325.5H0.5V0.5H-6"/><g class="tick" opacity="1" transform="translate(0,300.2375410801203)"><line stroke="currentColor" x2="-6"/><text fill="currentColor" x="-9" dy="0.32em">-4</text></g><g class="tick" opacity="1" transform="translate(0,261.45639688291243)"><line stroke="currentColor" x2="-6"/><text fill="currentColor" x="-9" dy="0.32em">-3</text></g><g class="tick" opacity="1" transform="translate(0,222.67525268570463)"><line stroke="currentColor" x2="-6"/><text fill="currentColor" x="-9" dy="0.32em">-2</text></g><g class="tick" opacity="1" transform="translate(0,183.89410848849678)"><line stroke="currentColor" x2="-6"/><text fill="currentColor" x="-9" dy="0.32em">-1</text></g><g class="tick" opacity="1" transform="translate(0,145.112964291289)"><line stroke="currentColor" x2="-6"/><text fill="currentColor" x="-9" dy="0.32em">0</text></g><g class="tick" opacity="1" transform="translate(0,106.33182009408118)"><line stroke="currentColor" x2="-6"/><text fill="currentColor" x="-9" dy="0.32em">1</text></g><g class="tick" opacity="1" transform="translate(0,67.55067589687337)"><line stroke="currentColor" x2="-6"/><text fill="currentColor" x="-9" dy="0.32em">2</text></g><g class="tick" opacity="1" transform="translate(0,28.769531699665556)"><line stroke="currentColor" x2="-6"/><text fill="currentColor" x="-9" dy="0.32em">3</text></g></g><path id="line_CTP1_gene_component" class="line" d="M30,135.25357960998656C108.33333333333333,135.25357960998656,186.66666666666669,135.25357960998656,265,135.25357960998656C343.3333333333333,135.25357960998656,421.6666666666667,135.25357960998656,500,135.25357960998656C578.3333333333334,135.25357960998656,656.6666666666666,135.25357960998656,735,135.25357960998656C813.3333333333334,135.25357960998656,891.6666666666666,135.25357960998656,970,135.25357960998656" style="fill: none; stroke-width: 3px; stroke: rgb(165, 55, 253); stroke-dasharray: 15, 5;"/><text id="CTP1_gene_component_text" x="985" y="140.25357960998656" style="fill: rgb(165, 55, 253);">CTP1</text><path id="CTP1_0" d="M0,-8.773826753016616L7.598356856515925,4.386913376508308L-7.598356856515925,4.386913376508308Z" transform="translate(30,135.25357960998656)" style="fill: white; stroke: black; stroke-width: 3;"/><path id="CTP1_1" d="M0,-8.773826753016616L7.598356856515925,4.386913376508308L-7.598356856515925,4.386913376508308Z" transform="translate(265,135.25357960998656)" style="fill: white; stroke: black; stroke-width: 3;"/><path id="CTP1_2" d="M0,-8.773826753016616L7.598356856515925,4.386913376508308L-7.598356856515925,4.386913376508308Z" transform="translate(500,135.25357960998656)" style="fill: white; stroke: black; stroke-width: 3;"/><path id="CTP1_3" d="M0,-8.773826753016616L7.598356856515925,4.386913376508308L-7.598356856515925,4.386913376508308Z" transform="translate(735,135.25357960998656)" style="fill: white; stroke: black; stroke-width: 3;"/><path id="CTP1_4" d="M0,-8.773826753016616L7.598356856515925,4.386913376508308L-7.598356856515925,4.386913376508308Z" transform="translate(970,135.25357960998656)" style="fill: white; stroke: black; stroke-width: 3;"/><path id="line_CIT_metabolite_component" class="line" d="M30,137.49871707798565C108.33333333333333,165.57165469927295,186.66666666666669,193.64459232056026,265,212.62484089140648C343.3333333333333,231.6050894622527,421.6666666666667,239.1145393511654,500,251.38020850306302C578.3333333333334,263.64587765496066,656.6666666666666,286.2188558027922,735,286.2188558027922C813.3333333333334,286.2188558027922,891.6666666666666,265.7132196451363,970,245.20758348748043" style="fill: none; stroke-width: 3px; stroke: rgb(128, 128, 128); stroke-dasharray: 1, 0;"/><text id="CIT_metabolite_component_text" x="45" y="142.49871707798565" style="fill: rgb(128, 128, 128);">CIT (React.)</text><path id="CIT_0" d="M5.641895835477563,0A5.641895835477563,5.641895835477563,0,1,1,-5.641895835477563,0A5.641895835477563,5.641895835477563,0,1,1,5.641895835477563,0" transform="translate(30,137.49871707798565)" style="fill: white; stroke: black; stroke-width: 3;"/><path id="CIT_1" d="M5.641895835477563,0A5.641895835477563,5.641895835477563,0,1,1,-5.641895835477563,0A5.641895835477563,5.641895835477563,0,1,1,5.641895835477563,0" transform="translate(265,212.62484089140648)" style="fill: white; stroke: black; stroke-width: 3;"/><path id="CIT_2" d="M5.641895835477563,0A5.641895835477563,5.641895835477563,0,1,1,-5.641895835477563,0A5.641895835477563,5.641895835477563,0,1,1,5.641895835477563,0" transform="translate(500,251.38020850306302)" style="fill: white; stroke: black; stroke-width: 3;"/><path id="CIT_3" d="M5.641895835477563,0A5.641895835477563,5.641895835477563,0,1,1,-5.641895835477563,0A5.641895835477563,5.641895835477563,0,1,1,5.641895835477563,0" transform="translate(735,286.2188558027922)" style="fill: white; stroke: black; stroke-width: 3;"/><path id="CIT_4" d="M5.641895835477563,0A5.641895835477563,5.641895835477563,0,1,1,-5.641895835477563,0A5.641895835477563,5.641895835477563,0,1,1,5.641895835477563,0" transform="translate(970,245.20758348748043)" style="fill: white; stroke: black; stroke-width: 3;"/><path id="line_MAL_metabolite_component" class="line" d="M30,38.781144197207844C108.33333333333333,39.571219747112835,186.66666666666669,40.361295297017826,265,43.521597496637796C343.3333333333333,46.681899696257766,421.6666666666667,80.95635116690417,500,96.12610734635035C578.3333333333334,111.29586352579653,656.6666666666666,134.54013457331487,735,134.54013457331487C813.3333333333334,134.54013457331487,891.6666666666666,102.0390241528131,970,69.53791373231132" style="fill: none; stroke-width: 3px; stroke: rgb(128, 128, 128); stroke-dasharray: 1, 0;"/><text id="MAL_metabolite_component_text" x="45" y="43.781144197207844" style="fill: rgb(128, 128, 128);">MAL (React.)</text><path id="MAL_0" d="M5.641895835477563,0A5.641895835477563,5.641895835477563,0,1,1,-5.641895835477563,0A5.641895835477563,5.641895835477563,0,1,1,5.641895835477563,0" transform="translate(30,38.781144197207844)" style="fill: white; stroke: black; stroke-width: 3;"/><path id="MAL_1" d="M5.641895835477563,0A5.641895835477563,5.641895835477563,0,1,1,-5.641895835477563,0A5.641895835477563,5.641895835477563,0,1,1,5.641895835477563,0" transform="translate(265,43.521597496637796)" style="fill: white; stroke: black; stroke-width: 3;"/><path id="MAL_2" d="M5.641895835477563,0A5.641895835477563,5.641895835477563,0,1,1,-5.641895835477563,0A5.641895835477563,5.641895835477563,0,1,1,5.641895835477563,0" transform="translate(500,96.12610734635035)" style="fill: white; stroke: black; stroke-width: 3;"/><path id="MAL_3" d="M5.641895835477563,0A5.641895835477563,5.641895835477563,0,1,1,-5.641895835477563,0A5.641895835477563,5.641895835477563,0,1,1,5.641895835477563,0" transform="translate(735,134.54013457331487)" style="fill: white; stroke: black; stroke-width: 3;"/><path id="MAL_4" d="M5.641895835477563,0A5.641895835477563,5.641895835477563,0,1,1,-5.641895835477563,0A5.641895835477563,5.641895835477563,0,1,1,5.641895835477563,0" transform="translate(970,69.53791373231132)" style="fill: white; stroke: black; stroke-width: 3;"/><path id="line_CIT_metabolite_component" class="line" d="M30,137.49871707798565C108.33333333333333,165.57165469927295,186.66666666666669,193.64459232056026,265,212.62484089140648C343.3333333333333,231.6050894622527,421.6666666666667,239.1145393511654,500,251.38020850306302C578.3333333333334,263.64587765496066,656.6666666666666,286.2188558027922,735,286.2188558027922C813.3333333333334,286.2188558027922,891.6666666666666,265.7132196451363,970,245.20758348748043" style="fill: none; stroke-width: 3px; stroke: rgb(128, 128, 128); stroke-dasharray: 1, 0;"/><text id="CIT_metabolite_component_text" x="45" y="142.49871707798565" style="fill: rgb(128, 128, 128);">CIT (Prod.)</text><path id="CIT_0" d="M5.641895835477563,0A5.641895835477563,5.641895835477563,0,1,1,-5.641895835477563,0A5.641895835477563,5.641895835477563,0,1,1,5.641895835477563,0" transform="translate(30,137.49871707798565)" style="fill: white; stroke: black; stroke-width: 3;"/><path id="CIT_1" d="M5.641895835477563,0A5.641895835477563,5.641895835477563,0,1,1,-5.641895835477563,0A5.641895835477563,5.641895835477563,0,1,1,5.641895835477563,0" transform="translate(265,212.62484089140648)" style="fill: white; stroke: black; stroke-width: 3;"/><path id="CIT_2" d="M5.641895835477563,0A5.641895835477563,5.641895835477563,0,1,1,-5.641895835477563,0A5.641895835477563,5.641895835477563,0,1,1,5.641895835477563,0" transform="translate(500,251.38020850306302)" style="fill: white; stroke: black; stroke-width: 3;"/><path id="CIT_3" d="M5.641895835477563,0A5.641895835477563,5.641895835477563,0,1,1,-5.641895835477563,0A5.641895835477563,5.641895835477563,0,1,1,5.641895835477563,0" transform="translate(735,286.2188558027922)" style="fill: white; stroke: black; stroke-width: 3;"/><path id="CIT_4" d="M5.641895835477563,0A5.641895835477563,5.641895835477563,0,1,1,-5.641895835477563,0A5.641895835477563,5.641895835477563,0,1,1,5.641895835477563,0" transform="translate(970,245.20758348748043)" style="fill: white; stroke: black; stroke-width: 3;"/><path id="line_MAL_metabolite_component" class="line" d="M30,38.781144197207844C108.33333333333333,39.571219747112835,186.66666666666669,40.361295297017826,265,43.521597496637796C343.3333333333333,46.681899696257766,421.6666666666667,80.95635116690417,500,96.12610734635035C578.3333333333334,111.29586352579653,656.6666666666666,134.54013457331487,735,134.54013457331487C813.3333333333334,134.54013457331487,891.6666666666666,102.0390241528131,970,69.53791373231132" style="fill: none; stroke-width: 3px; stroke: rgb(128, 128, 128); stroke-dasharray: 1, 0;"/><text id="MAL_metabolite_component_text" x="45" y="43.781144197207844" style="fill: rgb(128, 128, 128);">MAL (Prod.)</text><path id="MAL_0" d="M5.641895835477563,0A5.641895835477563,5.641895835477563,0,1,1,-5.641895835477563,0A5.641895835477563,5.641895835477563,0,1,1,5.641895835477563,0" transform="translate(30,38.781144197207844)" style="fill: white; stroke: black; stroke-width: 3;"/><path id="MAL_1" d="M5.641895835477563,0A5.641895835477563,5.641895835477563,0,1,1,-5.641895835477563,0A5.641895835477563,5.641895835477563,0,1,1,5.641895835477563,0" transform="translate(265,43.521597496637796)" style="fill: white; stroke: black; stroke-width: 3;"/><path id="MAL_2" d="M5.641895835477563,0A5.641895835477563,5.641895835477563,0,1,1,-5.641895835477563,0A5.641895835477563,5.641895835477563,0,1,1,5.641895835477563,0" transform="translate(500,96.12610734635035)" style="fill: white; stroke: black; stroke-width: 3;"/><path id="MAL_3" d="M5.641895835477563,0A5.641895835477563,5.641895835477563,0,1,1,-5.641895835477563,0A5.641895835477563,5.641895835477563,0,1,1,5.641895835477563,0" transform="translate(735,134.54013457331487)" style="fill: white; stroke: black; stroke-width: 3;"/><path id="MAL_4" d="M5.641895835477563,0A5.641895835477563,5.641895835477563,0,1,1,-5.641895835477563,0A5.641895835477563,5.641895835477563,0,1,1,5.641895835477563,0" transform="translate(970,69.53791373231132)" style="fill: white; stroke: black; stroke-width: 3;"/></g></svg>