<svg xmlns="http://www.w3.org/2000/svg" id="svg_viewer_id" width="1429" height="786"><g><defs><marker id="collapsed" fill="rgba(0, 0, 0, 1)" viewBox="0 -5 10 10" refX="15.7" refY="-0.18" markerWidth="6" markerHeight="10" orient="auto"><path d="M0, -5L10, 0L0, 5"/></marker><marker id="collapsed_catalyst" fill="#008000" viewBox="0 -5 10 10" refX="15.7" refY="-0.18" markerWidth="6" markerHeight="10" orient="auto"><path d="M0, -5L10, 0L0, 5"/></marker><marker id="collapsed_inhibitor" fill="#ff0000" viewBox="0 -5 10 10" refX="15.7" refY="-0.18" markerWidth="6" markerHeight="10" orient="auto"><path d="M0, -5L10, 0L0, 5"/></marker><marker id="reaction" fill="#666" viewBox="0 -5 10 10" refX="15.7" refY="-0.18" markerWidth="6" markerHeight="10" orient="auto"><path d="M0, -5L10, 0L0, 5"/></marker><marker id="reactant" fill="#666" viewBox="0 -5 10 10" refX="15.7" refY="-0.18" markerWidth="6" markerHeight="10" orient="auto"><path d="M0, -5L10, 0L0, 5"/></marker><marker id="product" fill="#666" viewBox="0 -5 10 10" refX="15.7" refY="-0.18" markerWidth="6" markerHeight="10" orient="auto"><path d="M0, -5L10, 0L0, 5"/></marker><marker id="inhibitor" fill="#ff0000" viewBox="0 -5 10 10" refX="15.7" refY="-0.18" markerWidth="6" markerHeight="10" orient="auto"><path d="M0, -5L10, 0L0, 5"/></marker><marker id="catalyst" fill="#008000" viewBox="0 -5 10 10" refX="15.7" refY="-0.18" markerWidth="6" markerHeight="10" orient="auto"><path d="M0, -5L10, 0L0, 5"/></marker><marker id="gene_component" fill="#a537fd" viewBox="0 -5 10 10" refX="15.7" refY="-0.18" markerWidth="6" markerHeight="10" orient="auto"><path d="M0, -5L10, 0L0, 5"/></marker><marker id="complex_component" fill="rgba(166, 97, 26, 1)" viewBox="0 -5 10 10" refX="15.7" refY="-0.18" markerWidth="6" markerHeight="10" orient="auto"><path d="M0, -5L10, 0L0, 5"/></marker><marker id="mirna_component" viewBox="0 -5 10 10" refX="15.7" refY="-0.18" markerWidth="6" markerHeight="10" orient="auto"><path d="M0, -5L10, 0L0, 5"/></marker><marker id="other" viewBox="0 -5 10 10" refX="15.7" refY="-0.18" markerWidth="6" markerHeight="10" orient="auto"><path d="M0, -5L10, 0L0, 5"/></marker><marker id="protein_component" fill="#ff4500" viewBox="0 -5 10 10" refX="15.7" refY="-0.18" markerWidth="6" markerHeight="10" orient="auto"><path d="M0, -5L10, 0L0, 5"/></marker><marker id="metabolite_component" fill="rgba(0, 55, 253, 1)" viewBox="0 -5 10 10" refX="15.7" refY="-0.18" markerWidth="6" markerHeight="10" orient="auto"><path d="M0, -5L10, 0L0, 5"/></marker></defs><g/><g><path class="link reactant" style="stroke-width: 1.5px;fill: none;stroke: #666;" marker-end="url(#reactant)" d="M890.8799086600486,350.9101259936074A70.87939079622353,70.87939079622353 0 0,1 907.825362130841,419.7341018037347"/><path class="link reactant" style="stroke-width: 1.5px;fill: none;stroke: #666;" marker-end="url(#reactant)" d="M767.6800758346433,450.8742737061446A91.46222935400426,91.46222935400426 0 0,1 789.0739705253736,539.7991896092053"/><path class="link reactant" style="stroke-width: 1.5px;fill: none;stroke: #666;" marker-end="url(#reactant)" d="M767.6800758346433,450.8742737061446A138.89227944942976,138.89227944942976 0 0,1 824.9077872297132,324.31972286287754"/><path class="link product" style="stroke-width: 1.5px;fill: none;stroke: #666;" marker-end="url(#product)" d="M907.825362130841,419.7341018037347A143.5632668099847,143.5632668099847 0 0,1 767.6800758346433,450.8742737061446"/><path class="link product" style="stroke-width: 1.5px;fill: none;stroke: #666;" marker-end="url(#product)" d="M907.825362130841,419.7341018037347A108.29854700183877,108.29854700183877 0 0,1 1016.1156798642055,418.39904827805304"/><path class="link reactant" style="stroke-width: 1.5px;fill: none;stroke: #666;" marker-end="url(#reactant)" d="M989.5158869555963,486.49902098462087A105.50306289096177,105.50306289096177 0 0,1 907.825362130841,419.7341018037347"/><path class="link catalyst" style="stroke-width: 1.5px;fill: none;stroke: #008000;" marker-end="url(#catalyst)" d="M938.0353412165209,312.8556487265638A111.06595593847035,111.06595593847035 0 0,1 907.825362130841,419.7341018037347"/><path class="link catalyst" style="stroke-width: 1.5px;fill: none;stroke: #008000;" marker-end="url(#catalyst)" d="M938.0353412165209,312.8556487265638A113.70694115506312,113.70694115506312 0 0,1 824.9077872297132,324.31972286287754"/><path style="stroke-width: 1.5px;fill: none;stroke:#a537fd;stroke-dasharray:0, 2 1;" marker-end="url(#gene_component)" d="M1030.20770922208,247.42526470901603A113.03486442879462,113.03486442879462 0 0,1 938.0353412165209,312.8556487265638"/><path class="link reactant" style="stroke-width: 1.5px;fill: none;stroke: #666;" marker-end="url(#reactant)" d="M789.0739705253736,539.7991896092053A91.46222935400426,91.46222935400426 0 0,1 767.6800758346433,450.8742737061446"/><path class="link product" style="stroke-width: 1.5px;fill: none;stroke: #666;" marker-end="url(#product)" d="M789.0739705253736,539.7991896092053A73.51570264507129,73.51570264507129 0 0,1 831.6000920073618,599.7665768050614"/><path class="link product" style="stroke-width: 1.5px;fill: none;stroke: #666;" marker-end="url(#product)" d="M831.6000920073618,599.7665768050614A73.51570264507129,73.51570264507129 0 0,1 789.0739705253736,539.7991896092053"/><path class="link catalyst" style="stroke-width: 1.5px;fill: none;stroke: #008000;" marker-end="url(#catalyst)" d="M778.7120744692594,644.5184218450074A105.23063475021698,105.23063475021698 0 0,1 789.0739705253736,539.7991896092053"/><path class="link product" style="stroke-width: 1.5px;fill: none;stroke: #666;" marker-end="url(#product)" d="M601.6652741232323,465.6649501607636A166.67236872758585,166.67236872758585 0 0,1 767.6800758346433,450.8742737061446"/><path class="link product" style="stroke-width: 1.5px;fill: none;stroke: #666;" marker-end="url(#product)" d="M601.6652741232323,465.6649501607636A92.26786983008343,92.26786983008343 0 0,1 576.6095604891598,554.465687867545"/><path class="link reactant" style="stroke-width: 1.5px;fill: none;stroke: #666;" marker-end="url(#reactant)" d="M570.7827014502806,380.45999632927357A90.62900999308387,90.62900999308387 0 0,1 601.6652741232323,465.6649501607636"/><path class="link reactant" style="stroke-width: 1.5px;fill: none;stroke: #666;" marker-end="url(#reactant)" d="M524.3208759276813,505.886085332459A87.17738036171849,87.17738036171849 0 0,1 601.6652741232323,465.6649501607636"/><path class="link reactant" style="stroke-width: 1.5px;fill: none;stroke: #666;" marker-end="url(#reactant)" d="M515.9844315150885,419.50899374672315A97.32203811334976,97.32203811334976 0 0,1 601.6652741232323,465.6649501607636"/><path class="link catalyst" style="stroke-width: 1.5px;fill: none;stroke: #008000;" marker-end="url(#catalyst)" d="M423.33160613328687,489.47024724569417A179.91550602449442,179.91550602449442 0 0,1 601.6652741232323,465.6649501607636"/><path class="link protein_component" style="stroke-width: 1.5px;fill: none;stroke: #ff4500;stroke-dasharray: 0, 2 1;" marker-end="url(#protein_component)" d="M277.9366791093824,508.73943977050084A146.66624214468908,146.66624214468908 0 0,1 423.33160613328687,489.47024724569417"/><path style="stroke-width: 1.5px;fill: none;stroke:#a537fd;stroke-dasharray:0, 2 1;" marker-end="url(#gene_component)" d="M176.96682202998713,522.5456310412784A101.90938600560206,101.90938600560206 0 0,1 277.9366791093824,508.73943977050084"/><path class="link product" style="stroke-width: 1.5px;fill: none;stroke: #666;" marker-end="url(#product)" d="M824.9077872297132,324.31972286287754A71.1292509778758,71.1292509778758 0 0,1 890.8799086600486,350.9101259936074"/><path class="link product" style="stroke-width: 1.5px;fill: none;stroke: #666;" marker-end="url(#product)" d="M824.9077872297132,324.31972286287754A100.94362519615659,100.94362519615659 0 0,1 776.7473576165984,235.60564006187943"/><path class="link reactant" style="stroke-width: 1.5px;fill: none;stroke: #666;" marker-end="url(#reactant)" d="M848.6291034093454,216.4375138611443A110.45936746327912,110.45936746327912 0 0,1 824.9077872297132,324.31972286287754"/></g><g class="node" id="species_76190"><path d="M7.463526651802308,0A7.463526651802308,7.463526651802308,0,1,1,-7.463526651802308,0A7.463526651802308,7.463526651802308,0,1,1,7.463526651802308,0" id="species_76190" style="fill: rgb(133, 133, 255); stroke: black; stroke-width: 2; stroke-dasharray: none;" transform="translate(890.8799086600486,350.9101259936074)"/><text id="species_76190" transform="translate(890.8799086600486,350.9101259936074)" style="--node_display:inline;"><tspan x="16" y="-.5em" class="bold-text">Citric acid</tspan><tspan x="16" y=".7em">Value: -2.59</tspan><tspan x="16" y="1.7em">Statistic: &lt; 0.01</tspan></text><path class="cell"/></g><g class="node" id="species_29654"><path d="M7.463526651802308,0A7.463526651802308,7.463526651802308,0,1,1,-7.463526651802308,0A7.463526651802308,7.463526651802308,0,1,1,7.463526651802308,0" id="species_29654" style="fill: rgb(133, 133, 255); stroke: black; stroke-width: 2; stroke-dasharray: none;" transform="translate(767.6800758346433,450.8742737061446)"/><text id="species_29654" transform="translate(767.6800758346433,450.8742737061446)" style="--node_display:inline;"><tspan x="16" y="-.5em" class="bold-text">Citric acid</tspan><tspan x="16" y=".7em">Value: -2.59</tspan><tspan x="16" y="1.7em">Statistic: &lt; 0.01</tspan></text><path class="cell"/></g><g class="node" id="reaction_10666273"><path d="M0,-18.876579049491834L4.238056047668955,-5.833183721955068L17.952693510379785,-5.833183721955069L6.857318731355415,2.2280779191642193L11.095374779024372,15.271473246700983L8.881784197001252e-16,7.210211605581696L-11.095374779024368,15.271473246700985L-6.857318731355414,2.2280779191642206L-17.952693510379788,-5.833183721955065L-4.238056047668956,-5.833183721955068Z" id="reaction_10666273" style="fill: rgb(191, 191, 191); stroke: purple; stroke-width: 3; stroke-dasharray: none;" transform="translate(907.825362130841,419.7341018037347)"/><text id="reaction_10666273" transform="translate(907.825362130841,419.7341018037347)" style="--node_display:none;"><tspan x="16" y=".31em" class="bold-text">phosphoenolpyruvate [mitochondrial matrix] + citrate [cytosol] =&gt; phosphoenolpyruvate [cytosol] + citrate [mitochondrial matrix]</tspan><tspan x="16" y="1.7em">Compartment: cytosol</tspan></text><path class="cell"/></g><g class="node" id="species_372364"><path d="M7.463526651802308,0A7.463526651802308,7.463526651802308,0,1,1,-7.463526651802308,0A7.463526651802308,7.463526651802308,0,1,1,7.463526651802308,0" id="species_372364" style="fill: rgb(217, 217, 255); stroke: black; stroke-width: 2; stroke-dasharray: none;" transform="translate(989.5158869555963,486.49902098462087)"/><text id="species_372364" transform="translate(989.5158869555963,486.49902098462087)" style="--node_display:inline;"><tspan x="16" y="-.5em" class="bold-text">Phosphoenolpyruvate</tspan><tspan x="16" y=".7em">Value: -0.80</tspan><tspan x="16" y="1.7em">Statistic: &lt; 0.01</tspan></text><path class="cell"/></g><g class="node" id="species_29492"><path d="M7.463526651802308,0A7.463526651802308,7.463526651802308,0,1,1,-7.463526651802308,0A7.463526651802308,7.463526651802308,0,1,1,7.463526651802308,0" id="species_29492" style="fill: rgb(217, 217, 255); stroke: black; stroke-width: 2; stroke-dasharray: none;" transform="translate(1016.1156798642055,418.39904827805304)"/><text id="species_29492" transform="translate(1016.1156798642055,418.39904827805304)" style="--node_display:inline;"><tspan x="16" y="-.5em" class="bold-text">Phosphoenolpyruvate</tspan><tspan x="16" y=".7em">Value: -0.80</tspan><tspan x="16" y="1.7em">Statistic: &lt; 0.01</tspan></text><path class="cell"/></g><g class="node" id="species_10661746"><path d="M0,-12.310745130262294L7.107612014881809,0L0,12.310745130262294L-7.107612014881809,0Z" id="species_10661746" style="fill: rgb(255, 245, 245); stroke: black; stroke-width: 1; stroke-dasharray: 2, 2;" transform="translate(938.0353412165209,312.8556487265638)"/><text id="species_10661746" transform="translate(938.0353412165209,312.8556487265638)" style="--node_display:inline;"><tspan x="16" y="-.5em" class="bold-text">CTP1</tspan><tspan x="16" y=".7em">Value: 0.24</tspan><tspan x="16" y="1.7em">Statistic: 0.13</tspan></text><path class="cell"/></g><g class="node" id="YBR291C"><path d="M0,-11.606681817423647L10.051681307531815,5.8033409087118235L-10.051681307531815,5.8033409087118235Z" id="YBR291C" style="fill: rgb(255, 245, 245); stroke: black; stroke-width: 1; stroke-dasharray: none;" transform="translate(1030.20770922208,247.42526470901603)"/><text id="YBR291C" transform="translate(1030.20770922208,247.42526470901603)" style="--node_display:inline;"><tspan x="16" y="-.5em" class="bold-text">CTP1</tspan><tspan x="16" y=".7em">Value: 0.24</tspan><tspan x="16" y="1.7em">Statistic: 0.13</tspan></text><path class="cell"/></g><g class="node" id="reaction_10659638"><path d="M0,-18.876579049491834L4.238056047668955,-5.833183721955068L17.952693510379785,-5.833183721955069L6.857318731355415,2.2280779191642193L11.095374779024372,15.271473246700983L8.881784197001252e-16,7.210211605581696L-11.095374779024368,15.271473246700985L-6.857318731355414,2.2280779191642206L-17.952693510379788,-5.833183721955065L-4.238056047668956,-5.833183721955068Z" id="reaction_10659638" style="fill: rgb(191, 191, 191); stroke: purple; stroke-width: 3; stroke-dasharray: none;" transform="translate(789.0739705253736,539.7991896092053)"/><text id="reaction_10659638" transform="translate(789.0739705253736,539.7991896092053)" style="--node_display:none;"><tspan x="16" y=".31em" class="bold-text">citrate &lt;=&gt; isocitrate</tspan><tspan x="16" y="1.7em">Compartment: mitochondrial matrix</tspan></text><path class="cell"/></g><g class="node" id="species_29938"><path d="M7.463526651802308,0A7.463526651802308,7.463526651802308,0,1,1,-7.463526651802308,0A7.463526651802308,7.463526651802308,0,1,1,7.463526651802308,0" id="species_29938" style="fill: rgb(255, 221, 221); stroke: black; stroke-width: 1; stroke-dasharray: none;" transform="translate(831.6000920073618,599.7665768050614)"/><text id="species_29938" transform="translate(831.6000920073618,599.7665768050614)" style="--node_display:inline;"><tspan x="16" y="-.5em" class="bold-text">Isocitric acid</tspan><tspan x="16" y=".7em">Value: 0.77</tspan><tspan x="16" y="1.7em">Statistic: 0.23</tspan></text><path class="cell"/></g><g class="node" id="species_10659635"><path d="M0,-12.310745130262294L7.107612014881809,0L0,12.310745130262294L-7.107612014881809,0Z" id="species_10659635" style="fill: rgb(255, 255, 255); stroke: black; stroke-width: 1; stroke-dasharray: none;" transform="translate(778.7120744692594,644.5184218450074)"/><text id="species_10659635" transform="translate(778.7120744692594,644.5184218450074)" style="--node_display:inline;"><tspan x="16" y="0em" class="bold-text">ACO1</tspan></text><path class="cell"/></g><g class="node" id="reaction_10659647"><path d="M0,-12.485683442151853L2.803210586121339,-3.858288370010813L11.874590598057022,-3.8582883700108135L4.535690005967841,1.4737350189456992L7.338900592089183,10.10113009108674L8.881784197001252e-16,4.769106702130226L-7.33890059208918,10.10113009108674L-4.53569000596784,1.4737350189457008L-11.874590598057024,-3.858288370010811L-2.80321058612134,-3.858288370010812Z" id="reaction_10659647" style="fill: rgb(191, 191, 191); stroke: black; stroke-width: 1; stroke-dasharray: none;" transform="translate(601.6652741232323,465.6649501607636)"/><text id="reaction_10659647" transform="translate(601.6652741232323,465.6649501607636)" style="--node_display:none;"><tspan x="16" y=".31em" class="bold-text">Acetyl-CoA + H2O + Oxaloacetate =&gt; Citrate + CoA</tspan><tspan x="16" y="1.7em">Compartment: mitochondrial matrix</tspan></text><path class="cell"/></g><g class="node" id="species_113559"><path d="M7.463526651802308,0A7.463526651802308,7.463526651802308,0,1,1,-7.463526651802308,0A7.463526651802308,7.463526651802308,0,1,1,7.463526651802308,0" id="species_113559" style="fill: rgb(255, 255, 255); stroke: black; stroke-width: 1; stroke-dasharray: none;" transform="translate(570.7827014502806,380.45999632927357)"/><text id="species_113559" transform="translate(570.7827014502806,380.45999632927357)" style="--node_display:inline;"><tspan x="16" y="0em" class="bold-text">Ac-CoA</tspan></text><path class="cell"/></g><g class="node" id="species_113587"><path d="M7.463526651802308,0A7.463526651802308,7.463526651802308,0,1,1,-7.463526651802308,0A7.463526651802308,7.463526651802308,0,1,1,7.463526651802308,0" id="species_113587" style="fill: rgb(255, 255, 255); stroke: black; stroke-width: 1; stroke-dasharray: none;" transform="translate(524.3208759276813,505.886085332459)"/><text id="species_113587" transform="translate(524.3208759276813,505.886085332459)" style="--node_display:inline;"><tspan x="16" y="0em" class="bold-text">OAA</tspan></text><path class="cell"/></g><g class="node" id="species_113521"><path d="M7.463526651802308,0A7.463526651802308,7.463526651802308,0,1,1,-7.463526651802308,0A7.463526651802308,7.463526651802308,0,1,1,7.463526651802308,0" id="species_113521" style="fill: rgb(255, 255, 255); stroke: black; stroke-width: 1; stroke-dasharray: none;" transform="translate(515.9844315150885,419.50899374672315)"/><text id="species_113521" transform="translate(515.9844315150885,419.50899374672315)" style="--node_display:inline;"><tspan x="16" y="0em" class="bold-text">H2O</tspan></text><path class="cell"/></g><g class="node" id="species_29374"><path d="M7.463526651802308,0A7.463526651802308,7.463526651802308,0,1,1,-7.463526651802308,0A7.463526651802308,7.463526651802308,0,1,1,7.463526651802308,0" id="species_29374" style="fill: rgb(255, 255, 255); stroke: black; stroke-width: 1; stroke-dasharray: none;" transform="translate(576.6095604891598,554.465687867545)"/><text id="species_29374" transform="translate(576.6095604891598,554.465687867545)" style="--node_display:inline;"><tspan x="16" y="0em" class="bold-text">CoA-SH</tspan></text><path class="cell"/></g><g class="node" id="species_10659644"><path d="M-6.614378277661476,-6.614378277661476h13.228756555322953v13.228756555322953h-13.228756555322953Z" id="species_10659644" style="fill: rgb(255, 255, 255); stroke: black; stroke-width: 1; stroke-dasharray: none;" transform="translate(423.33160613328687,489.47024724569417)"/><text id="species_10659644" transform="translate(423.33160613328687,489.47024724569417)" style="--node_display:inline;"><tspan x="16" y="0em" class="bold-text">CS dimer</tspan></text><path class="cell"/></g><g class="node" id="P00890"><path d="M0,-12.310745130262294L7.107612014881809,0L0,12.310745130262294L-7.107612014881809,0Z" id="P00890" style="fill: rgb(255, 255, 255); stroke: black; stroke-width: 1; stroke-dasharray: none;" transform="translate(277.9366791093824,508.73943977050084)"/><text id="P00890" transform="translate(277.9366791093824,508.73943977050084)" style="--node_display:inline;"><tspan x="16" y="0em" class="bold-text">CIT1</tspan></text><path class="cell"/></g><g class="node" id="CIT1"><path d="M0,-11.606681817423647L10.051681307531815,5.8033409087118235L-10.051681307531815,5.8033409087118235Z" id="CIT1" style="fill: rgb(255, 255, 255); stroke: black; stroke-width: 1; stroke-dasharray: none;" transform="translate(176.96682202998713,522.5456310412784)"/><text id="CIT1" transform="translate(176.96682202998713,522.5456310412784)" style="--node_display:inline;"><tspan x="16" y="0em" class="bold-text">CIT1</tspan></text><path class="cell"/></g><g class="node" id="reaction_10661749"><path d="M0,-18.876579049491834L4.238056047668955,-5.833183721955068L17.952693510379785,-5.833183721955069L6.857318731355415,2.2280779191642193L11.095374779024372,15.271473246700983L8.881784197001252e-16,7.210211605581696L-11.095374779024368,15.271473246700985L-6.857318731355414,2.2280779191642206L-17.952693510379788,-5.833183721955065L-4.238056047668956,-5.833183721955068Z" id="reaction_10661749" style="fill: rgb(191, 191, 191); stroke: purple; stroke-width: 3; stroke-dasharray: none;" transform="translate(824.9077872297132,324.31972286287754)"/><text id="reaction_10661749" transform="translate(824.9077872297132,324.31972286287754)" style="--node_display:none;"><tspan x="16" y=".31em" class="bold-text">Transport of Citrate from Mitochondrial Matrix to cytosol</tspan><tspan x="16" y="1.7em">Compartment: cytosol</tspan></text><path class="cell"/></g><g class="node" id="species_198498"><path d="M7.463526651802308,0A7.463526651802308,7.463526651802308,0,1,1,-7.463526651802308,0A7.463526651802308,7.463526651802308,0,1,1,7.463526651802308,0" id="species_198498" style="fill: rgb(255, 164, 164); stroke: black; stroke-width: 2; stroke-dasharray: none;" transform="translate(848.6291034093454,216.4375138611443)"/><text id="species_198498" transform="translate(848.6291034093454,216.4375138611443)" style="--node_display:inline;"><tspan x="16" y="-.5em" class="bold-text">D-Malic acid</tspan><tspan x="16" y=".7em">Value: 1.94</tspan><tspan x="16" y="1.7em">Statistic: &lt; 0.01</tspan></text><path class="cell"/></g><g class="node" id="species_113544"><path d="M7.463526651802308,0A7.463526651802308,7.463526651802308,0,1,1,-7.463526651802308,0A7.463526651802308,7.463526651802308,0,1,1,7.463526651802308,0" id="species_113544" style="fill: rgb(255, 164, 164); stroke: black; stroke-width: 2; stroke-dasharray: none;" transform="translate(776.7473576165984,235.60564006187943)"/><text id="species_113544" transform="translate(776.7473576165984,235.60564006187943)" style="--node_display:inline;"><tspan x="16" y="-.5em" class="bold-text">D-Malic acid</tspan><tspan x="16" y=".7em">Value: 1.94</tspan><tspan x="16" y="1.7em">Statistic: &lt; 0.01</tspan></text><path class="cell"/></g></g></svg>