<svg xmlns="http://www.w3.org/2000/svg" id="svg_viewer_id" width="690.3000000000001" height="595"><g><defs><marker id="collapsed" fill="rgba(0, 0, 0, 1)" viewBox="0 -5 10 10" refX="15.7" refY="-0.18" markerWidth="6" markerHeight="10" orient="auto"><path d="M0, -5L10, 0L0, 5"/></marker><marker id="collapsed_catalyst" fill="#008000" viewBox="0 -5 10 10" refX="15.7" refY="-0.18" markerWidth="6" markerHeight="10" orient="auto"><path d="M0, -5L10, 0L0, 5"/></marker><marker id="collapsed_inhibitor" fill="#ff0000" viewBox="0 -5 10 10" refX="15.7" refY="-0.18" markerWidth="6" markerHeight="10" orient="auto"><path d="M0, -5L10, 0L0, 5"/></marker><marker id="reaction" fill="#666" viewBox="0 -5 10 10" refX="15.7" refY="-0.18" markerWidth="6" markerHeight="10" orient="auto"><path d="M0, -5L10, 0L0, 5"/></marker><marker id="reactant" fill="#666" viewBox="0 -5 10 10" refX="15.7" refY="-0.18" markerWidth="6" markerHeight="10" orient="auto"><path d="M0, -5L10, 0L0, 5"/></marker><marker id="product" fill="#666" viewBox="0 -5 10 10" refX="15.7" refY="-0.18" markerWidth="6" markerHeight="10" orient="auto"><path d="M0, -5L10, 0L0, 5"/></marker><marker id="inhibitor" fill="#ff0000" viewBox="0 -5 10 10" refX="15.7" refY="-0.18" markerWidth="6" markerHeight="10" orient="auto"><path d="M0, -5L10, 0L0, 5"/></marker><marker id="catalyst" fill="#008000" viewBox="0 -5 10 10" refX="15.7" refY="-0.18" markerWidth="6" markerHeight="10" orient="auto"><path d="M0, -5L10, 0L0, 5"/></marker><marker id="gene_component" fill="#a537fd" viewBox="0 -5 10 10" refX="15.7" refY="-0.18" markerWidth="6" markerHeight="10" orient="auto"><path d="M0, -5L10, 0L0, 5"/></marker><marker id="complex_component" fill="rgba(166, 97, 26, 1)" viewBox="0 -5 10 10" refX="15.7" refY="-0.18" markerWidth="6" markerHeight="10" orient="auto"><path d="M0, -5L10, 0L0, 5"/></marker><marker id="mirna_component" viewBox="0 -5 10 10" refX="15.7" refY="-0.18" markerWidth="6" markerHeight="10" orient="auto"><path d="M0, -5L10, 0L0, 5"/></marker><marker id="other" viewBox="0 -5 10 10" refX="15.7" refY="-0.18" markerWidth="6" markerHeight="10" orient="auto"><path d="M0, -5L10, 0L0, 5"/></marker><marker id="protein_component" fill="#ff4500" viewBox="0 -5 10 10" refX="15.7" refY="-0.18" markerWidth="6" markerHeight="10" orient="auto"><path d="M0, -5L10, 0L0, 5"/></marker><marker id="metabolite_component" fill="rgba(0, 55, 253, 1)" viewBox="0 -5 10 10" refX="15.7" refY="-0.18" markerWidth="6" markerHeight="10" orient="auto"><path d="M0, -5L10, 0L0, 5"/></marker></defs><g/><g><path class="link product" style="stroke-width: 1.5px;fill: none;stroke: #666;" marker-end="url(#product)" d="M334.90101954646246,328.30647316406464A84.15524462457611,84.15524462457611 0 0,1 313.63964894439033,409.7316493563431"/><path class="link product" style="stroke-width: 1.5px;fill: none;stroke: #666;" marker-end="url(#product)" d="M334.90101954646246,328.30647316406464A88.21262728998907,88.21262728998907 0 0,1 268.9173012121169,269.760623369427"/><path class="link reactant" style="stroke-width: 1.5px;fill: none;stroke: #666;" marker-end="url(#reactant)" d="M248.4352948226814,352.6703797670563A89.8327417869898,89.8327417869898 0 0,1 334.90101954646246,328.30647316406464"/><path class="link reactant" style="stroke-width: 1.5px;fill: none;stroke: #666;" marker-end="url(#reactant)" d="M355.611953300469,247.44013779754422A83.47638571819816,83.47638571819816 0 0,1 334.90101954646246,328.30647316406464"/><path class="link catalyst" style="stroke-width: 1.5px;fill: none;stroke: #008000;" marker-end="url(#catalyst)" d="M419.33817670761846,355.89405583953635A88.82965848934546,88.82965848934546 0 0,1 334.90101954646246,328.30647316406464"/><path style="stroke-width: 1.5px;fill: none;stroke:#a537fd;stroke-dasharray:0, 2 1;" marker-end="url(#gene_component)" d="M493.27827903763455,398.6421305251158A85.40805946687426,85.40805946687426 0 0,1 419.33817670761846,355.89405583953635"/></g><g class="node" id="reaction_10661749"><path d="M0,-18.876579049491834L4.238056047668955,-5.833183721955068L17.952693510379785,-5.833183721955069L6.857318731355415,2.2280779191642193L11.095374779024372,15.271473246700983L8.881784197001252e-16,7.210211605581696L-11.095374779024368,15.271473246700985L-6.857318731355414,2.2280779191642206L-17.952693510379788,-5.833183721955065L-4.238056047668956,-5.833183721955068Z" id="reaction_10661749" style="fill: rgb(191, 191, 191); stroke: purple; stroke-width: 3; stroke-dasharray: none;" transform="translate(334.90101954646246,328.30647316406464)"/><text id="reaction_10661749" transform="translate(334.90101954646246,328.30647316406464)" style="--node_display:none;"><tspan x="16" y=".31em" class="bold-text">Transport of Citrate from Mitochondrial Matrix to cytosol</tspan><tspan x="16" y="1.7em">Compartment: cytosol</tspan></text><path class="cell"/></g><g class="node" id="species_29654"><path d="M7.463526651802308,0A7.463526651802308,7.463526651802308,0,1,1,-7.463526651802308,0A7.463526651802308,7.463526651802308,0,1,1,7.463526651802308,0" id="species_29654" style="fill: rgb(255, 188, 188); stroke: black; stroke-width: 2; stroke-dasharray: none;" transform="translate(248.4352948226814,352.6703797670563)"/><text id="species_29654" transform="translate(248.4352948226814,352.6703797670563)" style="--node_display:inline;"><tspan x="16" y="-.5em" class="bold-text">Citrate</tspan><tspan x="16" y=".7em">Value: 1.39</tspan><tspan x="16" y="1.7em">Statistic: 0.01</tspan></text><path class="cell"/></g><g class="node" id="species_198498"><path d="M7.463526651802308,0A7.463526651802308,7.463526651802308,0,1,1,-7.463526651802308,0A7.463526651802308,7.463526651802308,0,1,1,7.463526651802308,0" id="species_198498" style="fill: rgb(255, 193, 193); stroke: black; stroke-width: 1; stroke-dasharray: none;" transform="translate(355.611953300469,247.44013779754422)"/><text id="species_198498" transform="translate(355.611953300469,247.44013779754422)" style="--node_display:inline;"><tspan x="16" y="-.5em" class="bold-text">Malate</tspan><tspan x="16" y=".7em">Value: 1.30</tspan><tspan x="16" y="1.7em">Statistic: 0.06</tspan></text><path class="cell"/></g><g class="node" id="species_76190"><path d="M7.463526651802308,0A7.463526651802308,7.463526651802308,0,1,1,-7.463526651802308,0A7.463526651802308,7.463526651802308,0,1,1,7.463526651802308,0" id="species_76190" style="fill: rgb(255, 188, 188); stroke: black; stroke-width: 2; stroke-dasharray: none;" transform="translate(313.63964894439033,409.7316493563431)"/><text id="species_76190" transform="translate(313.63964894439033,409.7316493563431)" style="--node_display:inline;"><tspan x="16" y="-.5em" class="bold-text">Citrate</tspan><tspan x="16" y=".7em">Value: 1.39</tspan><tspan x="16" y="1.7em">Statistic: 0.01</tspan></text><path class="cell"/></g><g class="node" id="species_113544"><path d="M7.463526651802308,0A7.463526651802308,7.463526651802308,0,1,1,-7.463526651802308,0A7.463526651802308,7.463526651802308,0,1,1,7.463526651802308,0" id="species_113544" style="fill: rgb(255, 193, 193); stroke: black; stroke-width: 1; stroke-dasharray: none;" transform="translate(268.9173012121169,269.760623369427)"/><text id="species_113544" transform="translate(268.9173012121169,269.760623369427)" style="--node_display:inline;"><tspan x="16" y="-.5em" class="bold-text">Malate</tspan><tspan x="16" y=".7em">Value: 1.30</tspan><tspan x="16" y="1.7em">Statistic: 0.06</tspan></text><path class="cell"/></g><g class="node" id="species_10661746"><path d="M0,-12.310745130262294L7.107612014881809,0L0,12.310745130262294L-7.107612014881809,0Z" id="species_10661746" style="fill: rgb(224, 224, 255); stroke: black; stroke-width: 2; stroke-dasharray: none;" transform="translate(419.33817670761846,355.89405583953635)"/><text id="species_10661746" transform="translate(419.33817670761846,355.89405583953635)" style="--node_display:inline;"><tspan x="16" y="-.5em" class="bold-text">CTP1</tspan><tspan x="16" y=".7em">Value: -0.64</tspan><tspan x="16" y="1.7em">Statistic: &lt; 0.01</tspan></text><path class="cell"/></g><g class="node" id="YBR291C"><path d="M0,-11.606681817423647L10.051681307531815,5.8033409087118235L-10.051681307531815,5.8033409087118235Z" id="YBR291C" style="fill: rgb(255, 245, 245); stroke: black; stroke-width: 1; stroke-dasharray: none;" transform="translate(493.27827903763455,398.6421305251158)"/><text id="YBR291C" transform="translate(493.27827903763455,398.6421305251158)" style="--node_display:inline;"><tspan x="16" y="-.5em" class="bold-text">CTP1</tspan><tspan x="16" y=".7em">Value: 0.18</tspan><tspan x="16" y="1.7em">Statistic: 0.30</tspan></text><path class="cell"/></g></g></svg>