<svg xmlns="http://www.w3.org/2000/svg" id="svg_viewer_id" width="690.3000000000001" height="595"><g><defs><marker id="collapsed" fill="rgba(0, 0, 0, 1)" viewBox="0 -5 10 10" refX="15.7" refY="-0.18" markerWidth="6" markerHeight="10" orient="auto"><path d="M0, -5L10, 0L0, 5"/></marker><marker id="collapsed_catalyst" fill="#008000" viewBox="0 -5 10 10" refX="15.7" refY="-0.18" markerWidth="6" markerHeight="10" orient="auto"><path d="M0, -5L10, 0L0, 5"/></marker><marker id="collapsed_inhibitor" fill="#ff0000" viewBox="0 -5 10 10" refX="15.7" refY="-0.18" markerWidth="6" markerHeight="10" orient="auto"><path d="M0, -5L10, 0L0, 5"/></marker><marker id="reaction" fill="#666" viewBox="0 -5 10 10" refX="15.7" refY="-0.18" markerWidth="6" markerHeight="10" orient="auto"><path d="M0, -5L10, 0L0, 5"/></marker><marker id="reactant" fill="#666" viewBox="0 -5 10 10" refX="15.7" refY="-0.18" markerWidth="6" markerHeight="10" orient="auto"><path d="M0, -5L10, 0L0, 5"/></marker><marker id="product" fill="#666" viewBox="0 -5 10 10" refX="15.7" refY="-0.18" markerWidth="6" markerHeight="10" orient="auto"><path d="M0, -5L10, 0L0, 5"/></marker><marker id="inhibitor" fill="#ff0000" viewBox="0 -5 10 10" refX="15.7" refY="-0.18" markerWidth="6" markerHeight="10" orient="auto"><path d="M0, -5L10, 0L0, 5"/></marker><marker id="catalyst" fill="#008000" viewBox="0 -5 10 10" refX="15.7" refY="-0.18" markerWidth="6" markerHeight="10" orient="auto"><path d="M0, -5L10, 0L0, 5"/></marker><marker id="gene_component" fill="#a537fd" viewBox="0 -5 10 10" refX="15.7" refY="-0.18" markerWidth="6" markerHeight="10" orient="auto"><path d="M0, -5L10, 0L0, 5"/></marker><marker id="complex_component" fill="rgba(166, 97, 26, 1)" viewBox="0 -5 10 10" refX="15.7" refY="-0.18" markerWidth="6" markerHeight="10" orient="auto"><path d="M0, -5L10, 0L0, 5"/></marker><marker id="mirna_component" viewBox="0 -5 10 10" refX="15.7" refY="-0.18" markerWidth="6" markerHeight="10" orient="auto"><path d="M0, -5L10, 0L0, 5"/></marker><marker id="other" viewBox="0 -5 10 10" refX="15.7" refY="-0.18" markerWidth="6" markerHeight="10" orient="auto"><path d="M0, -5L10, 0L0, 5"/></marker><marker id="protein_component" fill="#ff4500" viewBox="0 -5 10 10" refX="15.7" refY="-0.18" markerWidth="6" markerHeight="10" orient="auto"><path d="M0, -5L10, 0L0, 5"/></marker><marker id="metabolite_component" fill="rgba(0, 55, 253, 1)" viewBox="0 -5 10 10" refX="15.7" refY="-0.18" markerWidth="6" markerHeight="10" orient="auto"><path d="M0, -5L10, 0L0, 5"/></marker></defs><g/><g><path class="link product" style="stroke-width: 1.5px;fill: none;stroke: #666;" marker-end="url(#product)" d="M358.09562655483876,342.3675310030713A84.19347376829761,84.19347376829761 0 0,1 442.2128037294021,338.7840230351522"/><path class="link product" style="stroke-width: 1.5px;fill: none;stroke: #666;" marker-end="url(#product)" d="M358.09562655483876,342.3675310030713A95.32866435459717,95.32866435459717 0 0,1 287.6939486133207,406.64161591021104"/><path class="link reactant" style="stroke-width: 1.5px;fill: none;stroke: #666;" marker-end="url(#reactant)" d="M289.56721910362626,295.6331537592955A82.94724012384586,82.94724012384586 0 0,1 358.09562655483876,342.3675310030713"/><path class="link reactant" style="stroke-width: 1.5px;fill: none;stroke: #666;" marker-end="url(#reactant)" d="M356.1924574757916,439.70945228985954A97.3605243019301,97.3605243019301 0 0,1 358.09562655483876,342.3675310030713"/><path class="link catalyst" style="stroke-width: 1.5px;fill: none;stroke: #008000;" marker-end="url(#catalyst)" d="M377.72736338403763,240.88136418751614A103.36753429315033,103.36753429315033 0 0,1 358.09562655483876,342.3675310030713"/><path style="stroke-width: 1.5px;fill: none;stroke:#a537fd;stroke-dasharray:0, 2 1;" marker-end="url(#gene_component)" d="M287.2374370311807,489.2089541869022A84.88224509620393,84.88224509620393 0 0,1 356.1924574757916,439.70945228985954"/><path style="stroke-width: 1.5px;fill: none;stroke:#a537fd;stroke-dasharray:0, 2 1;" marker-end="url(#gene_component)" d="M287.2374370311807,489.2089541869022A82.56860028438277,82.56860028438277 0 0,1 287.6939486133207,406.64161591021104"/><path style="stroke-width: 1.5px;fill: none;stroke:#a537fd;stroke-dasharray:0, 2 1;" marker-end="url(#gene_component)" d="M382.61754790023855,147.32614942373556A93.68293395330657,93.68293395330657 0 0,1 377.72736338403763,240.88136418751614"/></g><g class="node" id="reaction_10682405"><path d="M0,-18.876579049491834L4.238056047668955,-5.833183721955068L17.952693510379785,-5.833183721955069L6.857318731355415,2.2280779191642193L11.095374779024372,15.271473246700983L8.881784197001252e-16,7.210211605581696L-11.095374779024368,15.271473246700985L-6.857318731355414,2.2280779191642206L-17.952693510379788,-5.833183721955065L-4.238056047668956,-5.833183721955068Z" id="reaction_10682405" style="fill: rgb(191, 191, 191); stroke: purple; stroke-width: 3; stroke-dasharray: none;" transform="translate(358.09562655483876,342.3675310030713)"/><text id="reaction_10682405" transform="translate(358.09562655483876,342.3675310030713)" style="--node_display:none;"><tspan x="16" y=".31em" class="bold-text">MCAT transfers Mal from Mal-CoA to NDUFAB1</tspan><tspan x="16" y="1.7em">Compartment: mitochondrial inner membrane</tspan></text><path class="cell"/></g><g class="node" id="species_977314"><path d="M7.463526651802308,0A7.463526651802308,7.463526651802308,0,1,1,-7.463526651802308,0A7.463526651802308,7.463526651802308,0,1,1,7.463526651802308,0" id="species_977314" style="fill: rgb(255, 255, 255); stroke: black; stroke-width: 1; stroke-dasharray: none;" transform="translate(289.56721910362626,295.6331537592955)"/><text id="species_977314" transform="translate(289.56721910362626,295.6331537592955)" style="--node_display:inline;"><tspan x="16" y="0em" class="bold-text">Malonyl-CoA</tspan></text><path class="cell"/></g><g class="node" id="species_10682394"><path d="M0,-12.310745130262294L7.107612014881809,0L0,12.310745130262294L-7.107612014881809,0Z" id="species_10682394" style="fill: rgb(240, 240, 255); stroke: black; stroke-width: 1; stroke-dasharray: none;" transform="translate(356.1924574757916,439.70945228985954)"/><text id="species_10682394" transform="translate(356.1924574757916,439.70945228985954)" style="--node_display:inline;"><tspan x="16" y="-.5em" class="bold-text">phospho-ACP1</tspan><tspan x="16" y=".7em">Value: -0.26</tspan><tspan x="16" y="1.7em">Statistic: 0.07</tspan></text><path class="cell"/></g><g class="node" id="species_29374"><path d="M7.463526651802308,0A7.463526651802308,7.463526651802308,0,1,1,-7.463526651802308,0A7.463526651802308,7.463526651802308,0,1,1,7.463526651802308,0" id="species_29374" style="fill: rgb(193, 193, 255); stroke: black; stroke-width: 2; stroke-dasharray: none;" transform="translate(442.2128037294021,338.7840230351522)"/><text id="species_29374" transform="translate(442.2128037294021,338.7840230351522)" style="--node_display:inline;"><tspan x="16" y="-.5em" class="bold-text">CoA</tspan><tspan x="16" y=".7em">Value: -1.25</tspan><tspan x="16" y="1.7em">Statistic: 0.04</tspan></text><path class="cell"/></g><g class="node" id="species_10682397"><path d="M0,-12.310745130262294L7.107612014881809,0L0,12.310745130262294L-7.107612014881809,0Z" id="species_10682397" style="fill: rgb(240, 240, 255); stroke: black; stroke-width: 1; stroke-dasharray: none;" transform="translate(287.6939486133207,406.64161591021104)"/><text id="species_10682397" transform="translate(287.6939486133207,406.64161591021104)" style="--node_display:inline;"><tspan x="16" y="-.5em" class="bold-text">phospho-ACP1</tspan><tspan x="16" y=".7em">Value: -0.26</tspan><tspan x="16" y="1.7em">Statistic: 0.07</tspan></text><path class="cell"/></g><g class="node" id="species_10682402"><path d="M0,-12.310745130262294L7.107612014881809,0L0,12.310745130262294L-7.107612014881809,0Z" id="species_10682402" style="fill: rgb(84, 84, 255); stroke: black; stroke-width: 2; stroke-dasharray: none;" transform="translate(377.72736338403763,240.88136418751614)"/><text id="species_10682402" transform="translate(377.72736338403763,240.88136418751614)" style="--node_display:inline;"><tspan x="16" y="-.5em" class="bold-text">MCT1</tspan><tspan x="16" y=".7em">Value: -3.48</tspan><tspan x="16" y="1.7em">Statistic: &lt; 0.01</tspan></text><path class="cell"/></g><g class="node" id="YKL192C"><path d="M0,-11.606681817423647L10.051681307531815,5.8033409087118235L-10.051681307531815,5.8033409087118235Z" id="YKL192C" style="fill: rgb(252, 252, 255); stroke: black; stroke-width: 1; stroke-dasharray: none;" transform="translate(287.2374370311807,489.2089541869022)"/><text id="YKL192C" transform="translate(287.2374370311807,489.2089541869022)" style="--node_display:inline;"><tspan x="16" y="-.5em" class="bold-text">phospho-ACP1</tspan><tspan x="16" y=".7em">Value: -0.00</tspan><tspan x="16" y="1.7em">Statistic: 0.99</tspan></text><path class="cell"/></g><g class="node" id="YOR221C"><path d="M0,-11.606681817423647L10.051681307531815,5.8033409087118235L-10.051681307531815,5.8033409087118235Z" id="YOR221C" style="fill: rgb(81, 81, 255); stroke: black; stroke-width: 2; stroke-dasharray: none;" transform="translate(382.61754790023855,147.32614942373556)"/><text id="YOR221C" transform="translate(382.61754790023855,147.32614942373556)" style="--node_display:inline;"><tspan x="16" y="-.5em" class="bold-text">MCT1</tspan><tspan x="16" y=".7em">Value: -3.63</tspan><tspan x="16" y="1.7em">Statistic: &lt; 0.01</tspan></text><path class="cell"/></g></g></svg>