<?xml version="1.0" encoding="utf-8" standalone="no"?>
<!DOCTYPE svg PUBLIC "-//W3C//DTD SVG 1.1//EN"
  "http://www.w3.org/Graphics/SVG/1.1/DTD/svg11.dtd">
<svg height="364.79025pt" version="1.1" viewBox="0 0 366.462125 364.79025" width="366.462125pt" xmlns="http://www.w3.org/2000/svg" xmlns:xlink="http://www.w3.org/1999/xlink">
 <metadata>
  <rdf:RDF xmlns:cc="http://creativecommons.org/ns#" xmlns:dc="http://purl.org/dc/elements/1.1/" xmlns:rdf="http://www.w3.org/1999/02/22-rdf-syntax-ns#">
   <cc:Work>
    <dc:type rdf:resource="http://purl.org/dc/dcmitype/StillImage"/>
    <dc:date>2021-07-24T16:28:33.971492</dc:date>
    <dc:format>image/svg+xml</dc:format>
    <dc:creator>
     <cc:Agent>
      <dc:title>Matplotlib v3.4.2, https://matplotlib.org/</dc:title>
     </cc:Agent>
    </dc:creator>
   </cc:Work>
  </rdf:RDF>
 </metadata>
 <defs>
  <style type="text/css">*{stroke-linecap:butt;stroke-linejoin:round;}</style>
 </defs>
 <g id="figure_1">
  <g id="patch_1">
   <path d="M 0 364.79025 
L 366.462125 364.79025 
L 366.462125 0 
L 0 0 
z
" style="fill:#ffffff;"/>
  </g>
  <g id="axes_1">
   <g id="patch_2">
    <path d="M 34.373125 327.262875 
L 359.262125 327.262875 
L 359.262125 16.498875 
L 34.373125 16.498875 
z
" style="fill:#eaeaf2;"/>
   </g>
   <g id="matplotlib.axis_1">
    <g id="xtick_1">
     <g id="text_1">
      <!-- WT + EV -->
      <g style="fill:#262626;" transform="translate(57.336125 343.06175)scale(0.088 -0.088)">
       <defs>
        <path d="M 1294 0 
L 78 4581 
L 700 4581 
L 1397 1578 
Q 1509 1106 1591 641 
Q 1766 1375 1797 1488 
L 2669 4581 
L 3400 4581 
L 4056 2263 
Q 4303 1400 4413 641 
Q 4500 1075 4641 1638 
L 5359 4581 
L 5969 4581 
L 4713 0 
L 4128 0 
L 3163 3491 
Q 3041 3928 3019 4028 
Q 2947 3713 2884 3491 
L 1913 0 
L 1294 0 
z
" id="ArialMT-57" transform="scale(0.015625)"/>
        <path d="M 1659 0 
L 1659 4041 
L 150 4041 
L 150 4581 
L 3781 4581 
L 3781 4041 
L 2266 4041 
L 2266 0 
L 1659 0 
z
" id="ArialMT-54" transform="scale(0.015625)"/>
        <path id="ArialMT-20" transform="scale(0.015625)"/>
        <path d="M 1603 741 
L 1603 1997 
L 356 1997 
L 356 2522 
L 1603 2522 
L 1603 3769 
L 2134 3769 
L 2134 2522 
L 3381 2522 
L 3381 1997 
L 2134 1997 
L 2134 741 
L 1603 741 
z
" id="ArialMT-2b" transform="scale(0.015625)"/>
        <path d="M 506 0 
L 506 4581 
L 3819 4581 
L 3819 4041 
L 1113 4041 
L 1113 2638 
L 3647 2638 
L 3647 2100 
L 1113 2100 
L 1113 541 
L 3925 541 
L 3925 0 
L 506 0 
z
" id="ArialMT-45" transform="scale(0.015625)"/>
        <path d="M 1803 0 
L 28 4581 
L 684 4581 
L 1875 1253 
Q 2019 853 2116 503 
Q 2222 878 2363 1253 
L 3600 4581 
L 4219 4581 
L 2425 0 
L 1803 0 
z
" id="ArialMT-56" transform="scale(0.015625)"/>
       </defs>
       <use xlink:href="#ArialMT-57"/>
       <use x="94.384766" xlink:href="#ArialMT-54"/>
       <use x="153.71875" xlink:href="#ArialMT-20"/>
       <use x="181.501953" xlink:href="#ArialMT-2b"/>
       <use x="239.900391" xlink:href="#ArialMT-20"/>
       <use x="267.683594" xlink:href="#ArialMT-45"/>
       <use x="334.382812" xlink:href="#ArialMT-56"/>
      </g>
     </g>
    </g>
    <g id="xtick_2">
     <g id="text_2">
      <!-- WT + CTP1 -->
      <g style="fill:#262626;" transform="translate(133.181438 343.06175)scale(0.088 -0.088)">
       <defs>
        <path d="M 3763 1606 
L 4369 1453 
Q 4178 706 3683 314 
Q 3188 -78 2472 -78 
Q 1731 -78 1267 223 
Q 803 525 561 1097 
Q 319 1669 319 2325 
Q 319 3041 592 3573 
Q 866 4106 1370 4382 
Q 1875 4659 2481 4659 
Q 3169 4659 3637 4309 
Q 4106 3959 4291 3325 
L 3694 3184 
Q 3534 3684 3231 3912 
Q 2928 4141 2469 4141 
Q 1941 4141 1586 3887 
Q 1231 3634 1087 3207 
Q 944 2781 944 2328 
Q 944 1744 1114 1308 
Q 1284 872 1643 656 
Q 2003 441 2422 441 
Q 2931 441 3284 734 
Q 3638 1028 3763 1606 
z
" id="ArialMT-43" transform="scale(0.015625)"/>
        <path d="M 494 0 
L 494 4581 
L 2222 4581 
Q 2678 4581 2919 4538 
Q 3256 4481 3484 4323 
Q 3713 4166 3852 3881 
Q 3991 3597 3991 3256 
Q 3991 2672 3619 2267 
Q 3247 1863 2275 1863 
L 1100 1863 
L 1100 0 
L 494 0 
z
M 1100 2403 
L 2284 2403 
Q 2872 2403 3119 2622 
Q 3366 2841 3366 3238 
Q 3366 3525 3220 3729 
Q 3075 3934 2838 4000 
Q 2684 4041 2272 4041 
L 1100 4041 
L 1100 2403 
z
" id="ArialMT-50" transform="scale(0.015625)"/>
        <path d="M 2384 0 
L 1822 0 
L 1822 3584 
Q 1619 3391 1289 3197 
Q 959 3003 697 2906 
L 697 3450 
Q 1169 3672 1522 3987 
Q 1875 4303 2022 4600 
L 2384 4600 
L 2384 0 
z
" id="ArialMT-31" transform="scale(0.015625)"/>
       </defs>
       <use xlink:href="#ArialMT-57"/>
       <use x="94.384766" xlink:href="#ArialMT-54"/>
       <use x="153.71875" xlink:href="#ArialMT-20"/>
       <use x="181.501953" xlink:href="#ArialMT-2b"/>
       <use x="239.900391" xlink:href="#ArialMT-20"/>
       <use x="267.683594" xlink:href="#ArialMT-43"/>
       <use x="339.900391" xlink:href="#ArialMT-54"/>
       <use x="400.984375" xlink:href="#ArialMT-50"/>
       <use x="467.683594" xlink:href="#ArialMT-31"/>
      </g>
     </g>
    </g>
    <g id="xtick_3">
     <g id="text_3">
      <!-- mct1 + EV -->
      <g style="fill:#262626;" transform="translate(217.01 343.06175)scale(0.088 -0.088)">
       <defs>
        <path d="M 422 0 
L 422 3319 
L 925 3319 
L 925 2853 
Q 1081 3097 1340 3245 
Q 1600 3394 1931 3394 
Q 2300 3394 2536 3241 
Q 2772 3088 2869 2813 
Q 3263 3394 3894 3394 
Q 4388 3394 4653 3120 
Q 4919 2847 4919 2278 
L 4919 0 
L 4359 0 
L 4359 2091 
Q 4359 2428 4304 2576 
Q 4250 2725 4106 2815 
Q 3963 2906 3769 2906 
Q 3419 2906 3187 2673 
Q 2956 2441 2956 1928 
L 2956 0 
L 2394 0 
L 2394 2156 
Q 2394 2531 2256 2718 
Q 2119 2906 1806 2906 
Q 1569 2906 1367 2781 
Q 1166 2656 1075 2415 
Q 984 2175 984 1722 
L 984 0 
L 422 0 
z
" id="ArialMT-6d" transform="scale(0.015625)"/>
        <path d="M 2588 1216 
L 3141 1144 
Q 3050 572 2676 248 
Q 2303 -75 1759 -75 
Q 1078 -75 664 370 
Q 250 816 250 1647 
Q 250 2184 428 2587 
Q 606 2991 970 3192 
Q 1334 3394 1763 3394 
Q 2303 3394 2647 3120 
Q 2991 2847 3088 2344 
L 2541 2259 
Q 2463 2594 2264 2762 
Q 2066 2931 1784 2931 
Q 1359 2931 1093 2626 
Q 828 2322 828 1663 
Q 828 994 1084 691 
Q 1341 388 1753 388 
Q 2084 388 2306 591 
Q 2528 794 2588 1216 
z
" id="ArialMT-63" transform="scale(0.015625)"/>
        <path d="M 1650 503 
L 1731 6 
Q 1494 -44 1306 -44 
Q 1000 -44 831 53 
Q 663 150 594 308 
Q 525 466 525 972 
L 525 2881 
L 113 2881 
L 113 3319 
L 525 3319 
L 525 4141 
L 1084 4478 
L 1084 3319 
L 1650 3319 
L 1650 2881 
L 1084 2881 
L 1084 941 
Q 1084 700 1114 631 
Q 1144 563 1211 522 
Q 1278 481 1403 481 
Q 1497 481 1650 503 
z
" id="ArialMT-74" transform="scale(0.015625)"/>
       </defs>
       <use xlink:href="#ArialMT-6d"/>
       <use x="83.300781" xlink:href="#ArialMT-63"/>
       <use x="133.300781" xlink:href="#ArialMT-74"/>
       <use x="161.083984" xlink:href="#ArialMT-31"/>
       <use x="216.699219" xlink:href="#ArialMT-20"/>
       <use x="244.482422" xlink:href="#ArialMT-2b"/>
       <use x="302.880859" xlink:href="#ArialMT-20"/>
       <use x="330.664062" xlink:href="#ArialMT-45"/>
       <use x="397.363281" xlink:href="#ArialMT-56"/>
      </g>
     </g>
    </g>
    <g id="xtick_4">
     <g id="text_4">
      <!-- mct1 + CTP1 -->
      <g style="fill:#262626;" transform="translate(292.855313 343.06175)scale(0.088 -0.088)">
       <use xlink:href="#ArialMT-6d"/>
       <use x="83.300781" xlink:href="#ArialMT-63"/>
       <use x="133.300781" xlink:href="#ArialMT-74"/>
       <use x="161.083984" xlink:href="#ArialMT-31"/>
       <use x="216.699219" xlink:href="#ArialMT-20"/>
       <use x="244.482422" xlink:href="#ArialMT-2b"/>
       <use x="302.880859" xlink:href="#ArialMT-20"/>
       <use x="330.664062" xlink:href="#ArialMT-43"/>
       <use x="402.880859" xlink:href="#ArialMT-54"/>
       <use x="463.964844" xlink:href="#ArialMT-50"/>
       <use x="530.664062" xlink:href="#ArialMT-31"/>
      </g>
     </g>
    </g>
    <g id="text_5">
     <!-- label -->
     <g style="fill:#262626;" transform="translate(186.676875 355.68225)scale(0.096 -0.096)">
      <defs>
       <path d="M 409 0 
L 409 4581 
L 972 4581 
L 972 0 
L 409 0 
z
" id="ArialMT-6c" transform="scale(0.015625)"/>
       <path d="M 2588 409 
Q 2275 144 1986 34 
Q 1697 -75 1366 -75 
Q 819 -75 525 192 
Q 231 459 231 875 
Q 231 1119 342 1320 
Q 453 1522 633 1644 
Q 813 1766 1038 1828 
Q 1203 1872 1538 1913 
Q 2219 1994 2541 2106 
Q 2544 2222 2544 2253 
Q 2544 2597 2384 2738 
Q 2169 2928 1744 2928 
Q 1347 2928 1158 2789 
Q 969 2650 878 2297 
L 328 2372 
Q 403 2725 575 2942 
Q 747 3159 1072 3276 
Q 1397 3394 1825 3394 
Q 2250 3394 2515 3294 
Q 2781 3194 2906 3042 
Q 3031 2891 3081 2659 
Q 3109 2516 3109 2141 
L 3109 1391 
Q 3109 606 3145 398 
Q 3181 191 3288 0 
L 2700 0 
Q 2613 175 2588 409 
z
M 2541 1666 
Q 2234 1541 1622 1453 
Q 1275 1403 1131 1340 
Q 988 1278 909 1158 
Q 831 1038 831 891 
Q 831 666 1001 516 
Q 1172 366 1500 366 
Q 1825 366 2078 508 
Q 2331 650 2450 897 
Q 2541 1088 2541 1459 
L 2541 1666 
z
" id="ArialMT-61" transform="scale(0.015625)"/>
       <path d="M 941 0 
L 419 0 
L 419 4581 
L 981 4581 
L 981 2947 
Q 1338 3394 1891 3394 
Q 2197 3394 2470 3270 
Q 2744 3147 2920 2923 
Q 3097 2700 3197 2384 
Q 3297 2069 3297 1709 
Q 3297 856 2875 390 
Q 2453 -75 1863 -75 
Q 1275 -75 941 416 
L 941 0 
z
M 934 1684 
Q 934 1088 1097 822 
Q 1363 388 1816 388 
Q 2184 388 2453 708 
Q 2722 1028 2722 1663 
Q 2722 2313 2464 2622 
Q 2206 2931 1841 2931 
Q 1472 2931 1203 2611 
Q 934 2291 934 1684 
z
" id="ArialMT-62" transform="scale(0.015625)"/>
       <path d="M 2694 1069 
L 3275 997 
Q 3138 488 2766 206 
Q 2394 -75 1816 -75 
Q 1088 -75 661 373 
Q 234 822 234 1631 
Q 234 2469 665 2931 
Q 1097 3394 1784 3394 
Q 2450 3394 2872 2941 
Q 3294 2488 3294 1666 
Q 3294 1616 3291 1516 
L 816 1516 
Q 847 969 1125 678 
Q 1403 388 1819 388 
Q 2128 388 2347 550 
Q 2566 713 2694 1069 
z
M 847 1978 
L 2700 1978 
Q 2663 2397 2488 2606 
Q 2219 2931 1791 2931 
Q 1403 2931 1139 2672 
Q 875 2413 847 1978 
z
" id="ArialMT-65" transform="scale(0.015625)"/>
      </defs>
      <use xlink:href="#ArialMT-6c"/>
      <use x="22.216797" xlink:href="#ArialMT-61"/>
      <use x="77.832031" xlink:href="#ArialMT-62"/>
      <use x="133.447266" xlink:href="#ArialMT-65"/>
      <use x="189.0625" xlink:href="#ArialMT-6c"/>
     </g>
    </g>
   </g>
   <g id="matplotlib.axis_2">
    <g id="ytick_1">
     <g id="text_6">
      <!-- 3 -->
      <g style="fill:#262626;" transform="translate(19.9795 298.989979)scale(0.088 -0.088)">
       <defs>
        <path d="M 269 1209 
L 831 1284 
Q 928 806 1161 595 
Q 1394 384 1728 384 
Q 2125 384 2398 659 
Q 2672 934 2672 1341 
Q 2672 1728 2419 1979 
Q 2166 2231 1775 2231 
Q 1616 2231 1378 2169 
L 1441 2663 
Q 1497 2656 1531 2656 
Q 1891 2656 2178 2843 
Q 2466 3031 2466 3422 
Q 2466 3731 2256 3934 
Q 2047 4138 1716 4138 
Q 1388 4138 1169 3931 
Q 950 3725 888 3313 
L 325 3413 
Q 428 3978 793 4289 
Q 1159 4600 1703 4600 
Q 2078 4600 2393 4439 
Q 2709 4278 2876 4000 
Q 3044 3722 3044 3409 
Q 3044 3113 2884 2869 
Q 2725 2625 2413 2481 
Q 2819 2388 3044 2092 
Q 3269 1797 3269 1353 
Q 3269 753 2831 336 
Q 2394 -81 1725 -81 
Q 1122 -81 723 278 
Q 325 638 269 1209 
z
" id="ArialMT-33" transform="scale(0.015625)"/>
       </defs>
       <use xlink:href="#ArialMT-33"/>
      </g>
     </g>
    </g>
    <g id="ytick_2">
     <g id="text_7">
      <!-- 4 -->
      <g style="fill:#262626;" transform="translate(19.9795 241.33432)scale(0.088 -0.088)">
       <defs>
        <path d="M 2069 0 
L 2069 1097 
L 81 1097 
L 81 1613 
L 2172 4581 
L 2631 4581 
L 2631 1613 
L 3250 1613 
L 3250 1097 
L 2631 1097 
L 2631 0 
L 2069 0 
z
M 2069 1613 
L 2069 3678 
L 634 1613 
L 2069 1613 
z
" id="ArialMT-34" transform="scale(0.015625)"/>
       </defs>
       <use xlink:href="#ArialMT-34"/>
      </g>
     </g>
    </g>
    <g id="ytick_3">
     <g id="text_8">
      <!-- 5 -->
      <g style="fill:#262626;" transform="translate(19.9795 183.678661)scale(0.088 -0.088)">
       <defs>
        <path d="M 266 1200 
L 856 1250 
Q 922 819 1161 601 
Q 1400 384 1738 384 
Q 2144 384 2425 690 
Q 2706 997 2706 1503 
Q 2706 1984 2436 2262 
Q 2166 2541 1728 2541 
Q 1456 2541 1237 2417 
Q 1019 2294 894 2097 
L 366 2166 
L 809 4519 
L 3088 4519 
L 3088 3981 
L 1259 3981 
L 1013 2750 
Q 1425 3038 1878 3038 
Q 2478 3038 2890 2622 
Q 3303 2206 3303 1553 
Q 3303 931 2941 478 
Q 2500 -78 1738 -78 
Q 1113 -78 717 272 
Q 322 622 266 1200 
z
" id="ArialMT-35" transform="scale(0.015625)"/>
       </defs>
       <use xlink:href="#ArialMT-35"/>
      </g>
     </g>
    </g>
    <g id="ytick_4">
     <g id="text_9">
      <!-- 6 -->
      <g style="fill:#262626;" transform="translate(19.9795 126.023003)scale(0.088 -0.088)">
       <defs>
        <path d="M 3184 3459 
L 2625 3416 
Q 2550 3747 2413 3897 
Q 2184 4138 1850 4138 
Q 1581 4138 1378 3988 
Q 1113 3794 959 3422 
Q 806 3050 800 2363 
Q 1003 2672 1297 2822 
Q 1591 2972 1913 2972 
Q 2475 2972 2870 2558 
Q 3266 2144 3266 1488 
Q 3266 1056 3080 686 
Q 2894 316 2569 119 
Q 2244 -78 1831 -78 
Q 1128 -78 684 439 
Q 241 956 241 2144 
Q 241 3472 731 4075 
Q 1159 4600 1884 4600 
Q 2425 4600 2770 4297 
Q 3116 3994 3184 3459 
z
M 888 1484 
Q 888 1194 1011 928 
Q 1134 663 1356 523 
Q 1578 384 1822 384 
Q 2178 384 2434 671 
Q 2691 959 2691 1453 
Q 2691 1928 2437 2201 
Q 2184 2475 1800 2475 
Q 1419 2475 1153 2201 
Q 888 1928 888 1484 
z
" id="ArialMT-36" transform="scale(0.015625)"/>
       </defs>
       <use xlink:href="#ArialMT-36"/>
      </g>
     </g>
    </g>
    <g id="ytick_5">
     <g id="text_10">
      <!-- 7 -->
      <g style="fill:#262626;" transform="translate(19.9795 68.367344)scale(0.088 -0.088)">
       <defs>
        <path d="M 303 3981 
L 303 4522 
L 3269 4522 
L 3269 4084 
Q 2831 3619 2401 2847 
Q 1972 2075 1738 1259 
Q 1569 684 1522 0 
L 944 0 
Q 953 541 1156 1306 
Q 1359 2072 1739 2783 
Q 2119 3494 2547 3981 
L 303 3981 
z
" id="ArialMT-37" transform="scale(0.015625)"/>
       </defs>
       <use xlink:href="#ArialMT-37"/>
      </g>
     </g>
    </g>
    <g id="text_11">
     <!-- Adenine -->
     <g style="fill:#262626;" transform="translate(14.0715 189.495375)rotate(-90)scale(0.096 -0.096)">
      <defs>
       <path d="M -9 0 
L 1750 4581 
L 2403 4581 
L 4278 0 
L 3588 0 
L 3053 1388 
L 1138 1388 
L 634 0 
L -9 0 
z
M 1313 1881 
L 2866 1881 
L 2388 3150 
Q 2169 3728 2063 4100 
Q 1975 3659 1816 3225 
L 1313 1881 
z
" id="ArialMT-41" transform="scale(0.015625)"/>
       <path d="M 2575 0 
L 2575 419 
Q 2259 -75 1647 -75 
Q 1250 -75 917 144 
Q 584 363 401 755 
Q 219 1147 219 1656 
Q 219 2153 384 2558 
Q 550 2963 881 3178 
Q 1213 3394 1622 3394 
Q 1922 3394 2156 3267 
Q 2391 3141 2538 2938 
L 2538 4581 
L 3097 4581 
L 3097 0 
L 2575 0 
z
M 797 1656 
Q 797 1019 1065 703 
Q 1334 388 1700 388 
Q 2069 388 2326 689 
Q 2584 991 2584 1609 
Q 2584 2291 2321 2609 
Q 2059 2928 1675 2928 
Q 1300 2928 1048 2622 
Q 797 2316 797 1656 
z
" id="ArialMT-64" transform="scale(0.015625)"/>
       <path d="M 422 0 
L 422 3319 
L 928 3319 
L 928 2847 
Q 1294 3394 1984 3394 
Q 2284 3394 2536 3286 
Q 2788 3178 2913 3003 
Q 3038 2828 3088 2588 
Q 3119 2431 3119 2041 
L 3119 0 
L 2556 0 
L 2556 2019 
Q 2556 2363 2490 2533 
Q 2425 2703 2258 2804 
Q 2091 2906 1866 2906 
Q 1506 2906 1245 2678 
Q 984 2450 984 1813 
L 984 0 
L 422 0 
z
" id="ArialMT-6e" transform="scale(0.015625)"/>
       <path d="M 425 3934 
L 425 4581 
L 988 4581 
L 988 3934 
L 425 3934 
z
M 425 0 
L 425 3319 
L 988 3319 
L 988 0 
L 425 0 
z
" id="ArialMT-69" transform="scale(0.015625)"/>
      </defs>
      <use xlink:href="#ArialMT-41"/>
      <use x="66.699219" xlink:href="#ArialMT-64"/>
      <use x="122.314453" xlink:href="#ArialMT-65"/>
      <use x="177.929688" xlink:href="#ArialMT-6e"/>
      <use x="233.544922" xlink:href="#ArialMT-69"/>
      <use x="255.761719" xlink:href="#ArialMT-6e"/>
      <use x="311.376953" xlink:href="#ArialMT-65"/>
     </g>
    </g>
    <g id="text_12">
     <!-- 1e8 -->
     <g style="fill:#262626;" transform="translate(34.373125 13.498875)scale(0.088 -0.088)">
      <defs>
       <path d="M 1131 2484 
Q 781 2613 612 2850 
Q 444 3088 444 3419 
Q 444 3919 803 4259 
Q 1163 4600 1759 4600 
Q 2359 4600 2725 4251 
Q 3091 3903 3091 3403 
Q 3091 3084 2923 2848 
Q 2756 2613 2416 2484 
Q 2838 2347 3058 2040 
Q 3278 1734 3278 1309 
Q 3278 722 2862 322 
Q 2447 -78 1769 -78 
Q 1091 -78 675 323 
Q 259 725 259 1325 
Q 259 1772 486 2073 
Q 713 2375 1131 2484 
z
M 1019 3438 
Q 1019 3113 1228 2906 
Q 1438 2700 1772 2700 
Q 2097 2700 2305 2904 
Q 2513 3109 2513 3406 
Q 2513 3716 2298 3927 
Q 2084 4138 1766 4138 
Q 1444 4138 1231 3931 
Q 1019 3725 1019 3438 
z
M 838 1322 
Q 838 1081 952 856 
Q 1066 631 1291 507 
Q 1516 384 1775 384 
Q 2178 384 2440 643 
Q 2703 903 2703 1303 
Q 2703 1709 2433 1975 
Q 2163 2241 1756 2241 
Q 1359 2241 1098 1978 
Q 838 1716 838 1322 
z
" id="ArialMT-38" transform="scale(0.015625)"/>
      </defs>
      <use xlink:href="#ArialMT-31"/>
      <use x="55.615234" xlink:href="#ArialMT-65"/>
      <use x="111.230469" xlink:href="#ArialMT-38"/>
     </g>
    </g>
   </g>
   <g id="patch_3">
    <path clip-path="url(#p8d6e9c00cc)" d="M 62.800913 269.895495 
L 87.167587 269.895495 
L 87.167587 194.943138 
L 62.800913 194.943138 
L 62.800913 269.895495 
z
" style="fill:#107070;stroke:#1f1f1f;stroke-linejoin:miter;stroke-width:1.5;"/>
   </g>
   <g id="patch_4">
    <path clip-path="url(#p8d6e9c00cc)" d="M 144.023163 171.880875 
L 168.389837 171.880875 
L 168.389837 131.521914 
L 144.023163 131.521914 
L 144.023163 171.880875 
z
" style="fill:#101070;stroke:#1f1f1f;stroke-linejoin:miter;stroke-width:1.5;"/>
   </g>
   <g id="patch_5">
    <path clip-path="url(#p8d6e9c00cc)" d="M 225.245413 229.536534 
L 249.612088 229.536534 
L 249.612088 122.873565 
L 225.245413 122.873565 
L 225.245413 229.536534 
z
" style="fill:#b31940;stroke:#1f1f1f;stroke-linejoin:miter;stroke-width:1.5;"/>
   </g>
   <g id="patch_6">
    <path clip-path="url(#p8d6e9c00cc)" d="M 306.467663 73.866255 
L 330.834338 73.866255 
L 330.834338 45.038426 
L 306.467663 45.038426 
L 306.467663 73.866255 
z
" style="fill:#590d33;stroke:#1f1f1f;stroke-linejoin:miter;stroke-width:1.5;"/>
   </g>
   <g id="line2d_1">
    <path clip-path="url(#p8d6e9c00cc)" d="M 74.98425 269.895495 
L 74.98425 313.137239 
" style="fill:none;stroke:#1f1f1f;stroke-linecap:round;stroke-width:1.5;"/>
   </g>
   <g id="line2d_2">
    <path clip-path="url(#p8d6e9c00cc)" d="M 74.98425 194.943138 
L 74.98425 163.232526 
" style="fill:none;stroke:#1f1f1f;stroke-linecap:round;stroke-width:1.5;"/>
   </g>
   <g id="line2d_3">
    <path clip-path="url(#p8d6e9c00cc)" d="M 68.892581 313.137239 
L 81.075919 313.137239 
" style="fill:none;stroke:#1f1f1f;stroke-linecap:round;stroke-width:1.5;"/>
   </g>
   <g id="line2d_4">
    <path clip-path="url(#p8d6e9c00cc)" d="M 68.892581 163.232526 
L 81.075919 163.232526 
" style="fill:none;stroke:#1f1f1f;stroke-linecap:round;stroke-width:1.5;"/>
   </g>
   <g id="line2d_5"/>
   <g id="line2d_6">
    <path clip-path="url(#p8d6e9c00cc)" d="M 156.2065 171.880875 
L 156.2065 186.29479 
" style="fill:none;stroke:#1f1f1f;stroke-linecap:round;stroke-width:1.5;"/>
   </g>
   <g id="line2d_7">
    <path clip-path="url(#p8d6e9c00cc)" d="M 156.2065 131.521914 
L 156.2065 105.576868 
" style="fill:none;stroke:#1f1f1f;stroke-linecap:round;stroke-width:1.5;"/>
   </g>
   <g id="line2d_8">
    <path clip-path="url(#p8d6e9c00cc)" d="M 150.114831 186.29479 
L 162.298169 186.29479 
" style="fill:none;stroke:#1f1f1f;stroke-linecap:round;stroke-width:1.5;"/>
   </g>
   <g id="line2d_9">
    <path clip-path="url(#p8d6e9c00cc)" d="M 150.114831 105.576868 
L 162.298169 105.576868 
" style="fill:none;stroke:#1f1f1f;stroke-linecap:round;stroke-width:1.5;"/>
   </g>
   <g id="line2d_10"/>
   <g id="line2d_11">
    <path clip-path="url(#p8d6e9c00cc)" d="M 237.42875 229.536534 
L 237.42875 243.950448 
" style="fill:none;stroke:#1f1f1f;stroke-linecap:round;stroke-width:1.5;"/>
   </g>
   <g id="line2d_12">
    <path clip-path="url(#p8d6e9c00cc)" d="M 237.42875 122.873565 
L 237.42875 30.624511 
" style="fill:none;stroke:#1f1f1f;stroke-linecap:round;stroke-width:1.5;"/>
   </g>
   <g id="line2d_13">
    <path clip-path="url(#p8d6e9c00cc)" d="M 231.337081 243.950448 
L 243.520419 243.950448 
" style="fill:none;stroke:#1f1f1f;stroke-linecap:round;stroke-width:1.5;"/>
   </g>
   <g id="line2d_14">
    <path clip-path="url(#p8d6e9c00cc)" d="M 231.337081 30.624511 
L 243.520419 30.624511 
" style="fill:none;stroke:#1f1f1f;stroke-linecap:round;stroke-width:1.5;"/>
   </g>
   <g id="line2d_15"/>
   <g id="line2d_16">
    <path clip-path="url(#p8d6e9c00cc)" d="M 318.651 73.866255 
L 318.651 99.811302 
" style="fill:none;stroke:#1f1f1f;stroke-linecap:round;stroke-width:1.5;"/>
   </g>
   <g id="line2d_17">
    <path clip-path="url(#p8d6e9c00cc)" d="M 318.651 45.038426 
L 318.651 42.155643 
" style="fill:none;stroke:#1f1f1f;stroke-linecap:round;stroke-width:1.5;"/>
   </g>
   <g id="line2d_18">
    <path clip-path="url(#p8d6e9c00cc)" d="M 312.559331 99.811302 
L 324.742669 99.811302 
" style="fill:none;stroke:#1f1f1f;stroke-linecap:round;stroke-width:1.5;"/>
   </g>
   <g id="line2d_19">
    <path clip-path="url(#p8d6e9c00cc)" d="M 312.559331 42.155643 
L 324.742669 42.155643 
" style="fill:none;stroke:#1f1f1f;stroke-linecap:round;stroke-width:1.5;"/>
   </g>
   <g id="line2d_20"/>
   <g id="line2d_21">
    <path clip-path="url(#p8d6e9c00cc)" d="M 62.800913 226.653751 
L 87.167587 226.653751 
" style="fill:none;stroke:#1f1f1f;stroke-linecap:round;stroke-width:1.5;"/>
   </g>
   <g id="line2d_22">
    <path clip-path="url(#p8d6e9c00cc)" d="M 144.023163 157.46696 
L 168.389837 157.46696 
" style="fill:none;stroke:#1f1f1f;stroke-linecap:round;stroke-width:1.5;"/>
   </g>
   <g id="line2d_23">
    <path clip-path="url(#p8d6e9c00cc)" d="M 225.245413 215.122619 
L 249.612088 215.122619 
" style="fill:none;stroke:#1f1f1f;stroke-linecap:round;stroke-width:1.5;"/>
   </g>
   <g id="line2d_24">
    <path clip-path="url(#p8d6e9c00cc)" d="M 306.467663 47.921209 
L 330.834338 47.921209 
" style="fill:none;stroke:#1f1f1f;stroke-linecap:round;stroke-width:1.5;"/>
   </g>
   <g id="patch_7">
    <path d="M 34.373125 327.262875 
L 34.373125 16.498875 
" style="fill:none;stroke:#ffffff;stroke-linecap:square;stroke-linejoin:miter;stroke-width:1.25;"/>
   </g>
   <g id="patch_8">
    <path d="M 34.373125 327.262875 
L 359.262125 327.262875 
" style="fill:none;stroke:#ffffff;stroke-linecap:square;stroke-linejoin:miter;stroke-width:1.25;"/>
   </g>
   <g id="PathCollection_1">
    <defs>
     <path d="M 0 1.732051 
C 0.459345 1.732051 0.899939 1.549551 1.224745 1.224745 
C 1.549551 0.899939 1.732051 0.459345 1.732051 -0 
C 1.732051 -0.459345 1.549551 -0.899939 1.224745 -1.224745 
C 0.899939 -1.549551 0.459345 -1.732051 0 -1.732051 
C -0.459345 -1.732051 -0.899939 -1.549551 -1.224745 -1.224745 
C -1.549551 -0.899939 -1.732051 -0.459345 -1.732051 0 
C -1.732051 0.459345 -1.549551 0.899939 -1.224745 1.224745 
C -0.899939 1.549551 -0.459345 1.732051 0 1.732051 
z
" id="C0_0_061a19016e"/>
    </defs>
    <g clip-path="url(#p8d6e9c00cc)">
     <use x="74.98425" xlink:href="#C0_0_061a19016e" y="313.137239"/>
    </g>
    <g clip-path="url(#p8d6e9c00cc)">
     <use x="74.98425" xlink:href="#C0_0_061a19016e" y="226.653751"/>
    </g>
    <g clip-path="url(#p8d6e9c00cc)">
     <use x="74.98425" xlink:href="#C0_0_061a19016e" y="163.232526"/>
    </g>
   </g>
   <g id="PathCollection_2">
    <defs>
     <path d="M 0 1.732051 
C 0.459345 1.732051 0.899939 1.549551 1.224745 1.224745 
C 1.549551 0.899939 1.732051 0.459345 1.732051 -0 
C 1.732051 -0.459345 1.549551 -0.899939 1.224745 -1.224745 
C 0.899939 -1.549551 0.459345 -1.732051 0 -1.732051 
C -0.459345 -1.732051 -0.899939 -1.549551 -1.224745 -1.224745 
C -1.549551 -0.899939 -1.732051 -0.459345 -1.732051 0 
C -1.732051 0.459345 -1.549551 0.899939 -1.224745 1.224745 
C -0.899939 1.549551 -0.459345 1.732051 0 1.732051 
z
" id="C1_0_7ee6b77d31"/>
    </defs>
    <g clip-path="url(#p8d6e9c00cc)">
     <use x="156.2065" xlink:href="#C1_0_7ee6b77d31" y="186.29479"/>
    </g>
    <g clip-path="url(#p8d6e9c00cc)">
     <use x="156.2065" xlink:href="#C1_0_7ee6b77d31" y="157.46696"/>
    </g>
    <g clip-path="url(#p8d6e9c00cc)">
     <use x="156.2065" xlink:href="#C1_0_7ee6b77d31" y="105.576868"/>
    </g>
   </g>
   <g id="PathCollection_3">
    <defs>
     <path d="M 0 1.732051 
C 0.459345 1.732051 0.899939 1.549551 1.224745 1.224745 
C 1.549551 0.899939 1.732051 0.459345 1.732051 -0 
C 1.732051 -0.459345 1.549551 -0.899939 1.224745 -1.224745 
C 0.899939 -1.549551 0.459345 -1.732051 0 -1.732051 
C -0.459345 -1.732051 -0.899939 -1.549551 -1.224745 -1.224745 
C -1.549551 -0.899939 -1.732051 -0.459345 -1.732051 0 
C -1.732051 0.459345 -1.549551 0.899939 -1.224745 1.224745 
C -0.899939 1.549551 -0.459345 1.732051 0 1.732051 
z
" id="C2_0_28b9763b25"/>
    </defs>
    <g clip-path="url(#p8d6e9c00cc)">
     <use x="237.42875" xlink:href="#C2_0_28b9763b25" y="243.950448"/>
    </g>
    <g clip-path="url(#p8d6e9c00cc)">
     <use x="237.42875" xlink:href="#C2_0_28b9763b25" y="215.122619"/>
    </g>
    <g clip-path="url(#p8d6e9c00cc)">
     <use x="237.42875" xlink:href="#C2_0_28b9763b25" y="30.624511"/>
    </g>
   </g>
   <g id="PathCollection_4">
    <defs>
     <path d="M 0 1.732051 
C 0.459345 1.732051 0.899939 1.549551 1.224745 1.224745 
C 1.549551 0.899939 1.732051 0.459345 1.732051 -0 
C 1.732051 -0.459345 1.549551 -0.899939 1.224745 -1.224745 
C 0.899939 -1.549551 0.459345 -1.732051 0 -1.732051 
C -0.459345 -1.732051 -0.899939 -1.549551 -1.224745 -1.224745 
C -1.549551 -0.899939 -1.732051 -0.459345 -1.732051 0 
C -1.732051 0.459345 -1.549551 0.899939 -1.224745 1.224745 
C -0.899939 1.549551 -0.459345 1.732051 0 1.732051 
z
" id="C3_0_0506845b58"/>
    </defs>
    <g clip-path="url(#p8d6e9c00cc)">
     <use x="318.651" xlink:href="#C3_0_0506845b58" y="99.811302"/>
    </g>
    <g clip-path="url(#p8d6e9c00cc)">
     <use x="318.651" xlink:href="#C3_0_0506845b58" y="47.921209"/>
    </g>
    <g clip-path="url(#p8d6e9c00cc)">
     <use x="318.651" xlink:href="#C3_0_0506845b58" y="42.155643"/>
    </g>
   </g>
  </g>
 </g>
 <defs>
  <clipPath id="p8d6e9c00cc">
   <rect height="310.764" width="324.889" x="34.373125" y="16.498875"/>
  </clipPath>
 </defs>
</svg>
