<svg xmlns="http://www.w3.org/2000/svg" id="svg_viewer_id" width="690.3000000000001" height="595"><g><defs><marker id="collapsed" fill="rgba(0, 0, 0, 1)" viewBox="0 -5 10 10" refX="15.7" refY="-0.18" markerWidth="6" markerHeight="10" orient="auto"><path d="M0, -5L10, 0L0, 5"/></marker><marker id="collapsed_catalyst" fill="#008000" viewBox="0 -5 10 10" refX="15.7" refY="-0.18" markerWidth="6" markerHeight="10" orient="auto"><path d="M0, -5L10, 0L0, 5"/></marker><marker id="collapsed_inhibitor" fill="#ff0000" viewBox="0 -5 10 10" refX="15.7" refY="-0.18" markerWidth="6" markerHeight="10" orient="auto"><path d="M0, -5L10, 0L0, 5"/></marker><marker id="reaction" fill="#666" viewBox="0 -5 10 10" refX="15.7" refY="-0.18" markerWidth="6" markerHeight="10" orient="auto"><path d="M0, -5L10, 0L0, 5"/></marker><marker id="reactant" fill="#666" viewBox="0 -5 10 10" refX="15.7" refY="-0.18" markerWidth="6" markerHeight="10" orient="auto"><path d="M0, -5L10, 0L0, 5"/></marker><marker id="product" fill="#666" viewBox="0 -5 10 10" refX="15.7" refY="-0.18" markerWidth="6" markerHeight="10" orient="auto"><path d="M0, -5L10, 0L0, 5"/></marker><marker id="inhibitor" fill="#ff0000" viewBox="0 -5 10 10" refX="15.7" refY="-0.18" markerWidth="6" markerHeight="10" orient="auto"><path d="M0, -5L10, 0L0, 5"/></marker><marker id="catalyst" fill="#008000" viewBox="0 -5 10 10" refX="15.7" refY="-0.18" markerWidth="6" markerHeight="10" orient="auto"><path d="M0, -5L10, 0L0, 5"/></marker><marker id="gene_component" fill="#a537fd" viewBox="0 -5 10 10" refX="15.7" refY="-0.18" markerWidth="6" markerHeight="10" orient="auto"><path d="M0, -5L10, 0L0, 5"/></marker><marker id="complex_component" fill="rgba(166, 97, 26, 1)" viewBox="0 -5 10 10" refX="15.7" refY="-0.18" markerWidth="6" markerHeight="10" orient="auto"><path d="M0, -5L10, 0L0, 5"/></marker><marker id="mirna_component" viewBox="0 -5 10 10" refX="15.7" refY="-0.18" markerWidth="6" markerHeight="10" orient="auto"><path d="M0, -5L10, 0L0, 5"/></marker><marker id="other" viewBox="0 -5 10 10" refX="15.7" refY="-0.18" markerWidth="6" markerHeight="10" orient="auto"><path d="M0, -5L10, 0L0, 5"/></marker><marker id="protein_component" fill="#ff4500" viewBox="0 -5 10 10" refX="15.7" refY="-0.18" markerWidth="6" markerHeight="10" orient="auto"><path d="M0, -5L10, 0L0, 5"/></marker><marker id="metabolite_component" fill="rgba(0, 55, 253, 1)" viewBox="0 -5 10 10" refX="15.7" refY="-0.18" markerWidth="6" markerHeight="10" orient="auto"><path d="M0, -5L10, 0L0, 5"/></marker></defs><g/><g><path class="link product" style="stroke-width: 1.5px;fill: none;stroke: #666;" marker-end="url(#product)" d="M349.45058514652203,352.9329229188159A82.87078586628078,82.87078586628078 0 0,1 432.31297466952043,354.1125638107185"/><path class="link product" style="stroke-width: 1.5px;fill: none;stroke: #666;" marker-end="url(#product)" d="M349.45058514652203,352.9329229188159A88.60864431055158,88.60864431055158 0 0,1 303.2992648516044,428.5738343463613"/><path class="link reactant" style="stroke-width: 1.5px;fill: none;stroke: #666;" marker-end="url(#reactant)" d="M389.16375000528336,432.6901349997454A89.09740928905578,89.09740928905578 0 0,1 349.45058514652203,352.9329229188159"/><path class="link reactant" style="stroke-width: 1.5px;fill: none;stroke: #666;" marker-end="url(#reactant)" d="M266.76452057612124,351.27379947085814A82.70270832781749,82.70270832781749 0 0,1 349.45058514652203,352.9329229188159"/><path class="link catalyst" style="stroke-width: 1.5px;fill: none;stroke: #008000;" marker-end="url(#catalyst)" d="M348.8578522640772,263.825827825779A89.10906647580508,89.10906647580508 0 0,1 349.45058514652203,352.9329229188159"/><path style="stroke-width: 1.5px;fill: none;stroke:#a537fd;stroke-dasharray:0, 2 1;" marker-end="url(#gene_component)" d="M343.7912043477923,178.5848056064368A85.39146789993711,85.39146789993711 0 0,1 348.8578522640772,263.825827825779"/></g><g class="node" id="reaction_10661749"><path d="M0,-18.876579049491834L4.238056047668955,-5.833183721955068L17.952693510379785,-5.833183721955069L6.857318731355415,2.2280779191642193L11.095374779024372,15.271473246700983L8.881784197001252e-16,7.210211605581696L-11.095374779024368,15.271473246700985L-6.857318731355414,2.2280779191642206L-17.952693510379788,-5.833183721955065L-4.238056047668956,-5.833183721955068Z" id="reaction_10661749" style="fill: rgb(191, 191, 191); stroke: purple; stroke-width: 3; stroke-dasharray: none;" transform="translate(349.45058514652203,352.9329229188159)"/><text id="reaction_10661749" transform="translate(349.45058514652203,352.9329229188159)" style="--node_display:none;"><tspan x="16" y=".31em" class="bold-text">Transport of Citrate from Mitochondrial Matrix to cytosol</tspan><tspan x="16" y="1.7em">Compartment: cytosol</tspan></text><path class="cell"/></g><g class="node" id="species_29654"><path d="M7.463526651802308,0A7.463526651802308,7.463526651802308,0,1,1,-7.463526651802308,0A7.463526651802308,7.463526651802308,0,1,1,7.463526651802308,0" id="species_29654" style="fill: rgb(255, 188, 188); stroke: black; stroke-width: 2; stroke-dasharray: none;" transform="translate(389.16375000528336,432.6901349997454)"/><text id="species_29654" transform="translate(389.16375000528336,432.6901349997454)" style="--node_display:inline;"><tspan x="16" y="-.5em" class="bold-text">Citric acid</tspan><tspan x="16" y=".7em">Value: 1.39</tspan><tspan x="16" y="1.7em">Statistic: 0.01</tspan></text><path class="cell"/></g><g class="node" id="species_198498"><path d="M7.463526651802308,0A7.463526651802308,7.463526651802308,0,1,1,-7.463526651802308,0A7.463526651802308,7.463526651802308,0,1,1,7.463526651802308,0" id="species_198498" style="fill: rgb(255, 193, 193); stroke: black; stroke-width: 1; stroke-dasharray: none;" transform="translate(266.76452057612124,351.27379947085814)"/><text id="species_198498" transform="translate(266.76452057612124,351.27379947085814)" style="--node_display:inline;"><tspan x="16" y="-.5em" class="bold-text">D-Malic acid</tspan><tspan x="16" y=".7em">Value: 1.30</tspan><tspan x="16" y="1.7em">Statistic: 0.06</tspan></text><path class="cell"/></g><g class="node" id="species_76190"><path d="M7.463526651802308,0A7.463526651802308,7.463526651802308,0,1,1,-7.463526651802308,0A7.463526651802308,7.463526651802308,0,1,1,7.463526651802308,0" id="species_76190" style="fill: rgb(255, 188, 188); stroke: black; stroke-width: 2; stroke-dasharray: none;" transform="translate(432.31297466952043,354.1125638107185)"/><text id="species_76190" transform="translate(432.31297466952043,354.1125638107185)" style="--node_display:inline;"><tspan x="16" y="-.5em" class="bold-text">Citric acid</tspan><tspan x="16" y=".7em">Value: 1.39</tspan><tspan x="16" y="1.7em">Statistic: 0.01</tspan></text><path class="cell"/></g><g class="node" id="species_113544"><path d="M7.463526651802308,0A7.463526651802308,7.463526651802308,0,1,1,-7.463526651802308,0A7.463526651802308,7.463526651802308,0,1,1,7.463526651802308,0" id="species_113544" style="fill: rgb(255, 193, 193); stroke: black; stroke-width: 1; stroke-dasharray: none;" transform="translate(303.2992648516044,428.5738343463613)"/><text id="species_113544" transform="translate(303.2992648516044,428.5738343463613)" style="--node_display:inline;"><tspan x="16" y="-.5em" class="bold-text">D-Malic acid</tspan><tspan x="16" y=".7em">Value: 1.30</tspan><tspan x="16" y="1.7em">Statistic: 0.06</tspan></text><path class="cell"/></g><g class="node" id="species_10661746"><path d="M0,-12.310745130262294L7.107612014881809,0L0,12.310745130262294L-7.107612014881809,0Z" id="species_10661746" style="fill: rgb(224, 224, 255); stroke: black; stroke-width: 2; stroke-dasharray: none;" transform="translate(348.8578522640772,263.825827825779)"/><text id="species_10661746" transform="translate(348.8578522640772,263.825827825779)" style="--node_display:inline;"><tspan x="16" y="-.5em" class="bold-text">CTP1</tspan><tspan x="16" y=".7em">Value: -0.64</tspan><tspan x="16" y="1.7em">Statistic: &lt; 0.01</tspan></text><path class="cell"/></g><g class="node" id="YBR291C"><path d="M0,-11.606681817423647L10.051681307531815,5.8033409087118235L-10.051681307531815,5.8033409087118235Z" id="YBR291C" style="fill: rgb(255, 245, 245); stroke: black; stroke-width: 1; stroke-dasharray: none;" transform="translate(343.7912043477923,178.5848056064368)"/><text id="YBR291C" transform="translate(343.7912043477923,178.5848056064368)" style="--node_display:inline;"><tspan x="16" y="-.5em" class="bold-text">CTP1</tspan><tspan x="16" y=".7em">Value: 0.18</tspan><tspan x="16" y="1.7em">Statistic: 0.30</tspan></text><path class="cell"/></g></g></svg>